<svg width="32" height="32" viewBox="0 0 32 32" fill="none" xmlns="http://www.w3.org/2000/svg">
<g id="OUTLINE_copy_2">
<g id="Group">
<path id="Vector" d="M16 0C7.164 0 0 7.163 0 16C0 24.836 7.164 32 16 32C24.836 32 32 24.836 32 16C32 7.163 24.836 0 16 0Z" fill="#171717"/>
</g>
<g id="Group_2">
<path id="Vector_2" d="M16 13C15.2044 13 14.4413 13.3161 13.8787 13.8787C13.3161 14.4413 13 15.2044 13 16C13 16.7956 13.3161 17.5587 13.8787 18.1213C14.4413 18.6839 15.2044 19 16 19C16.7956 19 17.5587 18.6839 18.1213 18.1213C18.6839 17.5587 19 16.7956 19 16C19 15.2044 18.6839 14.4413 18.1213 13.8787C17.5587 13.3161 16.7956 13 16 13ZM16 11C17.3261 11 18.5979 11.5268 19.5355 12.4645C20.4732 13.4021 21 14.6739 21 16C21 17.3261 20.4732 18.5979 19.5355 19.5355C18.5979 20.4732 17.3261 21 16 21C14.6739 21 13.4021 20.4732 12.4645 19.5355C11.5268 18.5979 11 17.3261 11 16C11 14.6739 11.5268 13.4021 12.4645 12.4645C13.4021 11.5268 14.6739 11 16 11ZM22.5 10.75C22.5 11.0815 22.3683 11.3995 22.1339 11.6339C21.8995 11.8683 21.5815 12 21.25 12C20.9185 12 20.6005 11.8683 20.3661 11.6339C20.1317 11.3995 20 11.0815 20 10.75C20 10.4185 20.1317 10.1005 20.3661 9.86612C20.6005 9.6317 20.9185 9.5 21.25 9.5C21.5815 9.5 21.8995 9.6317 22.1339 9.86612C22.3683 10.1005 22.5 10.4185 22.5 10.75ZM16 8C13.526 8 13.122 8.007 11.971 8.058C11.187 8.095 10.661 8.2 10.173 8.39C9.739 8.558 9.426 8.759 9.093 9.093C8.78001 9.3954 8.53935 9.76458 8.389 10.173C8.199 10.663 8.094 11.188 8.058 11.971C8.006 13.075 8 13.461 8 16C8 18.474 8.007 18.878 8.058 20.029C8.095 20.812 8.2 21.339 8.389 21.826C8.559 22.261 8.759 22.574 9.091 22.906C9.428 23.242 9.741 23.443 10.171 23.609C10.665 23.8 11.191 23.906 11.971 23.942C13.075 23.994 13.461 24 16 24C18.474 24 18.878 23.993 20.029 23.942C20.811 23.905 21.338 23.8 21.826 23.611C22.259 23.442 22.574 23.241 22.906 22.909C23.243 22.572 23.444 22.259 23.61 21.829C23.8 21.336 23.906 20.809 23.942 20.029C23.994 18.925 24 18.539 24 16C24 13.526 23.993 13.122 23.942 11.971C23.905 11.189 23.8 10.661 23.61 10.173C23.4593 9.765 23.2191 9.39596 22.907 9.093C22.6047 8.77985 22.2355 8.53917 21.827 8.389C21.337 8.199 20.811 8.094 20.029 8.058C18.925 8.006 18.539 8 16 8ZM16 6C18.717 6 19.056 6.01 20.122 6.06C21.187 6.11 21.912 6.277 22.55 6.525C23.21 6.779 23.766 7.123 24.322 7.678C24.8305 8.1779 25.224 8.78259 25.475 9.45C25.722 10.087 25.89 10.813 25.94 11.878C25.987 12.944 26 13.283 26 16C26 18.717 25.99 19.056 25.94 20.122C25.89 21.187 25.722 21.912 25.475 22.55C25.2247 23.2178 24.8311 23.8226 24.322 24.322C23.822 24.8303 23.2173 25.2238 22.55 25.475C21.913 25.722 21.187 25.89 20.122 25.94C19.056 25.987 18.717 26 16 26C13.283 26 12.944 25.99 11.878 25.94C10.813 25.89 10.088 25.722 9.45 25.475C8.78233 25.2245 8.17753 24.8309 7.678 24.322C7.16941 23.8222 6.77593 23.2175 6.525 22.55C6.277 21.913 6.11 21.187 6.06 20.122C6.013 19.056 6 18.717 6 16C6 13.283 6.01 12.944 6.06 11.878C6.11 10.812 6.277 10.088 6.525 9.45C6.77524 8.78218 7.1688 8.17732 7.678 7.678C8.17767 7.16923 8.78243 6.77573 9.45 6.525C10.088 6.277 10.812 6.11 11.878 6.06C12.944 6.013 13.283 6 16 6Z" fill="white"/>
</g>
</g>
</svg>
