<svg width="24" height="24" viewBox="0 0 24 24" fill="none" xmlns="http://www.w3.org/2000/svg">
<g id="Frame" clip-path="url(#clip0_1_8874)">
<g id="Group">
<path id="Vector" d="M13.9997 2C15.8297 1.99913 17.6047 2.62567 19.0286 3.77513C20.4525 4.92458 21.4393 6.52748 21.8244 8.31647C22.2095 10.1055 21.9696 11.9724 21.1448 13.6059C20.3199 15.2395 18.96 16.5408 17.2917 17.293C16.7585 18.4719 15.9472 19.5039 14.9276 20.3004C13.9079 21.097 12.7103 21.6343 11.4374 21.8663C10.1644 22.0984 8.85422 22.0182 7.61908 21.6327C6.38395 21.2472 5.26076 20.5678 4.34583 19.6529C3.43091 18.738 2.75155 17.6148 2.36603 16.3796C1.98052 15.1445 1.90034 13.8343 2.13238 12.5614C2.36442 11.2884 2.90175 10.0908 3.69829 9.07114C4.49483 8.05148 5.52681 7.24024 6.70572 6.707C7.33986 5.30389 8.36531 4.1135 9.65906 3.27861C10.9528 2.44371 12.46 1.99976 13.9997 2ZM9.99972 8C9.21179 8 8.43157 8.1552 7.70362 8.45672C6.97567 8.75825 6.31423 9.20021 5.75708 9.75736C5.19993 10.3145 4.75797 10.9759 4.45644 11.7039C4.15491 12.4319 3.99972 13.2121 3.99972 14C3.99972 14.7879 4.15491 15.5681 4.45644 16.2961C4.75797 17.0241 5.19993 17.6855 5.75708 18.2426C6.31423 18.7998 6.97567 19.2417 7.70362 19.5433C8.43157 19.8448 9.21179 20 9.99972 20C11.591 20 13.1171 19.3679 14.2424 18.2426C15.3676 17.1174 15.9997 15.5913 15.9997 14C15.9997 12.4087 15.3676 10.8826 14.2424 9.75736C13.1171 8.63214 11.591 8 9.99972 8ZM10.9997 9V10H12.9997V12H8.99972C8.87477 11.9998 8.75427 12.0463 8.66194 12.1305C8.5696 12.2147 8.51213 12.3304 8.50084 12.4548C8.48956 12.5793 8.52526 12.7034 8.60094 12.8028C8.67662 12.9023 8.78677 12.9697 8.90972 12.992L8.99972 13H10.9997C11.6628 13 12.2986 13.2634 12.7675 13.7322C13.2363 14.2011 13.4997 14.837 13.4997 15.5C13.4997 16.163 13.2363 16.7989 12.7675 17.2678C12.2986 17.7366 11.6628 18 10.9997 18V19H8.99972V18H6.99972V16H10.9997C11.1247 16.0002 11.2452 15.9537 11.3375 15.8695C11.4298 15.7853 11.4873 15.6696 11.4986 15.5452C11.5099 15.4207 11.4742 15.2966 11.3985 15.1972C11.3228 15.0977 11.2127 15.0303 11.0897 15.008L10.9997 15H8.99972C8.33668 15 7.70079 14.7366 7.23195 14.2678C6.76311 13.7989 6.49972 13.163 6.49972 12.5C6.49972 11.837 6.76311 11.2011 7.23195 10.7322C7.70079 10.2634 8.33668 10 8.99972 10V9H10.9997ZM13.9997 4C13.1524 3.99901 12.3145 4.17794 11.5415 4.52496C10.7685 4.87198 10.078 5.37918 9.51572 6.013C10.646 5.94439 11.7779 6.1165 12.8367 6.51795C13.8955 6.9194 14.857 7.54105 15.6577 8.34178C16.4583 9.14252 17.0798 10.1041 17.4812 11.1629C17.8825 12.2218 18.0545 13.3537 17.9857 14.484C18.8949 13.6756 19.5369 12.6099 19.8265 11.4283C20.1162 10.2467 20.0397 9.00491 19.6074 7.86772C19.175 6.73053 18.4071 5.75164 17.4057 5.06088C16.4042 4.37013 15.2163 4.00014 13.9997 4Z" fill="#858585"/>
</g>
</g>
<defs>
<clipPath id="clip0_1_8874">
<rect width="24" height="24" fill="white" transform="translate(-0.000244141)"/>
</clipPath>
</defs>
</svg>
