<svg width="151" height="15" viewBox="0 0 151 15" fill="none" xmlns="http://www.w3.org/2000/svg">
<path id="Vector" d="M138.091 2.17418C134.835 1.89331 131.523 1.61284 128.212 1.33237C127.145 1.23862 126.023 1.24656 124.957 1.1528C122.6 1.06819 120.244 0.983565 117.887 0.898946C116.596 0.806779 115.25 0.816312 113.959 0.724145C113.566 0.726926 113.174 0.729706 112.837 0.732089C111.996 0.738047 111.154 0.744005 110.257 0.75036C106.386 0.777767 102.516 0.805173 98.6454 0.83258C97.7479 0.838935 96.7943 0.845688 95.8975 0.953345C93.5984 1.07093 91.3547 1.08682 89.0555 1.20441C86.4759 1.32398 83.8956 1.34225 81.316 1.46182C77.1665 1.69382 72.9609 1.92622 68.8114 2.15821C66.4001 2.27659 63.9888 2.39497 61.5775 2.51336C57.4287 2.84666 53.2799 3.17995 49.1311 3.51325C46.8327 3.73214 44.5897 3.84933 42.2913 4.06822C37.9757 4.60532 33.6593 5.04111 29.343 5.4769C27.0446 5.69579 24.7462 5.91468 22.4485 6.23487C18.1897 6.87287 13.8755 7.61257 9.61736 8.35187C8.72058 8.45953 7.76842 8.66888 6.81555 8.77694C5.0227 9.09356 3.1752 9.61317 1.32697 10.0315C1.21478 10.0323 1.10331 10.1344 0.991127 10.1352C0.766753 10.1368 0.599906 10.3406 0.433777 10.6457C0.156895 11.1542 0.0490114 11.7628 0.0533153 12.3706C0.0576192 12.9784 0.174111 13.5854 0.457448 13.9886C0.684692 14.3922 1.0795 14.6934 1.35997 14.6914C3.60085 14.2703 5.78492 13.7483 8.0258 13.3272C10.0991 13.0086 12.1724 12.69 14.2457 12.3714C16.4873 12.0516 18.7282 11.6305 21.0259 11.3103C21.9227 11.2026 22.8188 10.9937 23.7716 10.8856C27.3034 10.5567 30.7783 10.1269 34.3101 9.79794C36.4963 9.57984 38.6825 9.36175 40.8687 9.14365C41.7655 9.036 42.6623 8.92834 43.5591 8.82068C47.0347 8.49215 50.5111 8.26492 53.9868 7.93639C56.1176 7.81999 58.1916 7.60269 60.3225 7.48629C61.0517 7.48113 61.7241 7.37506 62.4533 7.3699C66.2102 7.14068 69.9677 7.01277 73.7246 6.78355C75.7993 6.66755 77.9302 6.55116 80.0049 6.43516C80.7341 6.43 81.5187 6.32313 82.248 6.31797C86.1177 6.18926 89.9882 6.16185 93.914 6.03275C96.326 6.01567 98.7374 5.89729 101.149 5.88021C105.244 5.85121 109.395 5.82182 113.491 5.89413C114.276 5.88857 115.118 5.98391 115.903 5.97835C118.204 6.06337 120.448 6.14878 122.75 6.3351C124.433 6.42449 126.173 6.51347 127.856 6.60286C129.091 6.69542 130.27 6.78838 131.505 6.88095C135.041 7.15983 138.634 7.53962 142.17 7.9198C143.069 8.01475 143.967 8.1097 144.865 8.20464C145.819 8.29919 146.83 8.39335 147.785 8.5892C147.953 8.58801 148.066 8.68852 148.235 8.78863C148.628 8.88715 148.965 8.88476 149.299 8.47717C149.633 8.17088 149.853 7.56148 149.961 6.95288C150.176 5.63436 149.717 4.21931 148.929 3.81966C148.254 3.52052 147.58 3.42398 146.961 3.22575C146.512 3.12762 146.063 3.0295 145.614 3.03268C144.715 2.83643 143.817 2.84278 142.974 2.64614C141.403 2.55596 139.719 2.36527 138.091 2.17418Z" fill="#35B984"/>
</svg>
