<svg width="64" height="64" fill="none" xmlns="http://www.w3.org/2000/svg"><g fill="#FF9533"><path d="M37 24c0 6.065 4.935 11 11 11s11-4.935 11-11-4.935-11-11-11-11 4.935-11 11zm20 0c0 4.962-4.038 9-9 9s-9-4.038-9-9 4.038-9 9-9 9 4.038 9 9z"/><path d="M55.714 37.739a7.075 7.075 0 00-.935-.376C59.649 34.882 63 29.83 63 24c0-5.743-3.248-10.737-8-13.256V4c0-1.654-1.346-3-3-3H4C2.346 1 1 2.346 1 4v44c0 1.654 1.346 3 3 3h35.184A2.966 2.966 0 0039 52c0 1.654 1.346 3 3 3h1v3c0 2.757 2.243 5 5 5s5-2.243 5-5v-3.024a7.03 7.03 0 002.714-.714L58.236 53H63V39h-4.764l-2.522-1.261zM61 24c0 7.168-5.832 13-13 13s-13-5.832-13-13 5.832-13 13-13 13 5.832 13 13zM46.963 47.827c.01.059.037.113.037.173 0 .551-.449 1-1 1h-4c-.551 0-1-.449-1-1 0-.551.449-1 1-1h1.78c.549.609 1.337 1 2.22 1 .339 0 .659-.069.963-.173zM43 45h-1c-.551 0-1-.449-1-1 0-.551.449-1 1-1h1v2zm0-5v1h-1c-.551 0-1-.449-1-1 0-.551.449-1 1-1h1.184A2.966 2.966 0 0043 40zM4 3h48c.551 0 1 .449 1 1v5.875A14.912 14.912 0 0048 9H3V4c0-.551.449-1 1-1zM3 48V11h37.549C36.046 13.591 33 18.442 33 24c0 5.707 3.205 10.678 7.909 13.213A2.998 2.998 0 0039 40c0 .771.301 1.468.78 2a2.976 2.976 0 00-.78 2c0 .771.301 1.468.78 2a2.976 2.976 0 00-.78 2c0 .352.072.686.184 1H4c-.551 0-1-.449-1-1zm38 4c0-.551.449-1 1-1h4c.551 0 1 .449 1 1 0 .551-.449 1-1 1h-4c-.551 0-1-.449-1-1zm7 9c-1.654 0-3-1.346-3-3v-3h1c1.654 0 3-1.346 3-3a2.98 2.98 0 00-.78-2c.48-.532.78-1.229.78-2a2.99 2.99 0 00-.419-1.497C48.84 46.06 49 45.55 49 45v-2h2v15c0 1.654-1.346 3-3 3zm13-10h-3.236l-2.943 1.472a5.023 5.023 0 01-1.82.503v-8.553a4.596 4.596 0 002.235.578H57v-2h-1.764a2.603 2.603 0 01-2.341-1.447L52.618 41H47v4c0 .551-.449 1-1 1-.551 0-1-.449-1-1v-5c0-.551.449-1 1-1h6.583c.772 0 1.545.183 2.236.528L57.764 41H61v10z"/><path d="M43.707 25.293l-1.414 1.414L45 29.414l8.707-8.707-1.414-1.414L45 26.586l-1.293-1.293zM7 5H5v2h2V5zm8 0h-2v2h2V5zm-4 0H9v2h2V5zM5 23h10V13H5v10zm2-8h6v6H7v-6zm24-2H17v2h14v-2zm-4 4H17v2h10v-2zm4 0h-2v2h2v-2zm0 4H17v2h14v-2zM5 35h10V25H5v10zm2-8h6v6H7v-6zm24-2H17v2h14v-2zm-4 4H17v2h10v-2zm4 0h-2v2h2v-2zm0 4H17v2h14v-2zM5 47h10V37H5v10zm2-8h6v6H7v-6zm24-2H21v2h10v-2zm-12 0h-2v2h2v-2zm12 4H21v2h10v-2zm-12 0h-2v2h2v-2zm12 4H21v2h10v-2zm-12 0h-2v2h2v-2z"/></g></svg>