<svg width="64" height="64" fill="none" xmlns="http://www.w3.org/2000/svg"><g fill="#FF9533"><path d="M45 47v4h-1.194a7.027 7.027 0 01-4.373-1.534l-2.67-2.136C41.036 45.77 44 41.66 44 37c0-6.065-4.935-11-11-11s-11 4.935-11 11c0 2.979 1.171 5.768 3.297 7.852l.001.001c.053.052.116.095.171.147l-.097.389a3.008 3.008 0 001.247 3.225l2.482 1.654c.061.04.113.089.17.133l-2.229.557a2.889 2.889 0 01-.43.075l-5.215.521-2.264-4.528a3.012 3.012 0 00-1.02-1.155l-.196-.13a3.006 3.006 0 00-2.746-.303 3.005 3.005 0 00-1.829 2.071l-.052.365A2.991 2.991 0 0011.171 47h-.73a2.998 2.998 0 00-2.847 2.052l-.152.459a2.983 2.983 0 00.725 3.07l3.457 3.457a11.037 11.037 0 004.3 2.656l5.221 1.741c1.122.376 2.292.565 3.478.565h16.146c.897 0 1.795-.11 2.668-.329L45 60.28V63h18V47H45zM33 28c4.962 0 9 4.038 9 9 0 4.244-3.001 7.936-7.142 8.805L32.601 44H34v-1h2c1.654 0 3-1.346 3-3v-1c0-1.654-1.346-3-3-3h-6a1 1 0 01-1-1v-1c0-.552.449-1 1-1h6a1 1 0 011 1h2c0-1.654-1.346-3-3-3h-2v-1h-2v1h-2c-1.654 0-3 1.346-3 3v1c0 1.654 1.346 3 3 3h6a1 1 0 011 1v1c0 .552-.449 1-1 1h-6a1 1 0 01-1-1h-2c0 1.009.505 1.899 1.271 2.443-.475.029-.94.158-1.359.41a3.037 3.037 0 00-.44.326A8.914 8.914 0 0124 37c0-4.962 4.038-9 9-9zm-1.035 15.491a3 3 0 00-.941-.491H32v.519l-.035-.028zm-16.672 4.461a.983.983 0 01.598-.646.988.988 0 01.917.102l.195.13c.145.097.262.229.34.385l1.923 3.847-.479.048a2.992 2.992 0 01-2.42-.864l-1.308-1.307.234-1.695zm27.659 10.779a9.043 9.043 0 01-2.183.269H24.623a8.99 8.99 0 01-2.846-.461l-5.221-1.742a9.025 9.025 0 01-3.518-2.173l-3.456-3.457a.994.994 0 01-.241-1.024l.152-.459a.997.997 0 01.948-.684h.73c.267 0 .519.104.708.293l3.073 3.073a4.988 4.988 0 004.034 1.44l7.825-.782c.241-.024.479-.066.714-.125l2.849-.712c.084.424.081.869-.028 1.305l-.316 1.266 1.94.484.316-1.266a5.01 5.01 0 00-2.077-5.372l-2.481-1.654a1 1 0 01-.416-1.074l.173-.693a1.002 1.002 0 011.213-.727l1.638.41c.138.034.27.1.381.188l7.468 5.975A9.029 9.029 0 0043.806 53H45v5.22l-2.048.511zM61 61H47V49h10v4h2v-4h2v12z"/><path d="M53 51c-2.206 0-4 1.794-4 4s1.794 4 4 4 4-1.794 4-4-1.794-4-4-4zm0 6c-1.103 0-2-.897-2-2s.897-2 2-2 2 .897 2 2-.897 2-2 2zm6-2h-2v2h2v-2zM23 24c0-6.065-4.935-11-11-11S1 17.935 1 24s4.935 11 11 11 11-4.935 11-11zM3 24c0-4.962 4.038-9 9-9s9 4.038 9 9-4.038 9-9 9-9-4.038-9-9z"/><path d="M13 31v-1h2c1.654 0 3-1.346 3-3v-1c0-1.654-1.346-3-3-3H9c-.552 0-1-.449-1-1v-1c0-.552.449-1 1-1h6c.552 0 1 .449 1 1h2c0-1.654-1.346-3-3-3h-2v-1h-2v1H9c-1.654 0-3 1.346-3 3v1c0 1.654 1.346 3 3 3h6c.552 0 1 .449 1 1v1c0 .552-.449 1-1 1H9c-.552 0-1-.449-1-1H6c0 1.654 1.346 3 3 3h2v1h2zM38 1h-2v6h2V1zm0 8h-2v4h2V9zm0 6h-2v10h2V15zM34 1h-2v2h2V1zm0 10h-2v13h2V11zm0-6h-2v4h2V5zm-4 2h-2v4h2V7zm0 6h-2v12h2V13zM18 1h-2v4h2V1zm0 6h-2v5h2V7zm-4-6h-2v2h2V1zm0 4h-2v6h2V5zm-4 0H8v6h2V5z"/></g></svg>