<svg width="64" height="64" fill="none" xmlns="http://www.w3.org/2000/svg"><g fill="#FF9533"><path d="M33 40h-8.35c-.826-2.327-3.043-4-5.65-4-3.309 0-6 2.691-6 6s2.691 6 6 6c.341 0 .674-.035 1-.09V51h13V40zm-14 6c-2.206 0-4-1.794-4-4s1.794-4 4-4c1.474 0 2.75.81 3.444 2H20v5.858A3.939 3.939 0 0119 46zm4-4a3.966 3.966 0 01-1 2.618V42h1zm8 7h-9v-1.812A5.999 5.999 0 0025 42h6v7zm-8.06-30.955A6.979 6.979 0 0018 16c-3.86 0-7 3.14-7 7s3.14 7 7 7 7-3.14 7-7a6.958 6.958 0 00-.859-3.356L26.333 18H37v-2H25.667l-2.727 2.045zm-.601 7.392L19 23.434v-5.333c2.279.465 4 2.484 4 4.899 0 .889-.253 1.713-.661 2.437zM13 23a5.01 5.01 0 014-4.899v6.465l4.006 2.403A4.949 4.949 0 0118 28c-2.757 0-5-2.243-5-5zm24-3h-2v2h2v-2z"/><path d="M33 20h-5v2h5v-2z"/><path d="M60.575 28.839L62.414 27 58 22.586l-1.839 1.839A14.9 14.9 0 0048 22c-1.027 0-2.03.105-3 .302V7h-8V3h-9.11A7.009 7.009 0 0023 1a7.009 7.009 0 00-4.89 2H9v4H1v56h44V51.698c.97.197 1.973.302 3 .302 8.271 0 15-6.729 15-15 0-2.921-.843-5.729-2.425-8.161zM59.586 27L44 42.586 38.414 37 40 35.414l4 4 14-14L59.586 27zM43 9v13.875c-.651.231-1.283.5-1.889.815V11H37V9h6zm-9.125 23H9v23h22v-2H11V34h22.302A15.06 15.06 0 0033 37c0 2.713.735 5.253 2 7.451V53h-2v2h4v-7.837a15.099 15.099 0 002.111 1.891V57H6.889V13H9v1h28v-1h2.111v11.945A15.05 15.05 0 0033.875 32zM11 5h7.983l.298-.332A5.006 5.006 0 0123 3c1.413 0 2.768.608 3.719 1.668l.298.332H35v7H11V5zm32 56H3V9h6v2H4.889v48h36.223v-8.69c.606.315 1.238.584 1.889.815L43 61zm5-11c-2.531 0-4.889-.739-6.889-1.995V48h-.008C37.444 45.698 35 41.634 35 37c0-7.168 5.832-13 13-13 2.39 0 4.693.647 6.715 1.871L44 36.586l-4-4L35.586 37 44 45.414l15.129-15.129A12.92 12.92 0 0161 37c0 7.168-5.832 13-13 13z"/></g></svg>