<svg width="32" height="32" viewBox="0 0 32 32" fill="none" xmlns="http://www.w3.org/2000/svg">
<g id="OUTLINE_copy_2">
<g id="Group">
<path id="Vector" d="M16 0C7.164 0 0 7.163 0 16C0 24.836 7.164 32 16 32C24.836 32 32 24.836 32 16C32 7.163 24.836 0 16 0ZM11.844 22.277H8.58V12.457H11.844V22.277ZM10.212 11.116H10.191C9.095 11.116 8.387 10.361 8.387 9.419C8.387 8.456 9.117 7.723 10.233 7.723C11.349 7.723 12.037 8.456 12.058 9.419C12.058 10.362 11.349 11.116 10.212 11.116ZM23.613 22.277H20.349V17.023C20.349 15.703 19.877 14.803 18.695 14.803C17.794 14.803 17.257 15.41 17.021 15.997C16.935 16.207 16.913 16.5 16.913 16.793V22.277H13.65C13.65 22.277 13.693 13.379 13.65 12.457H16.914V13.848C17.347 13.179 18.123 12.226 19.856 12.226C22.003 12.226 23.613 13.63 23.613 16.646V22.277Z" fill="#171717"/>
</g>
</g>
</svg>
