<?xml version="1.0" encoding="utf-8"?><svg viewBox="0 0 151 64" xmlns="http://www.w3.org/2000/svg" xmlns:xlink="http://www.w3.org/1999/xlink"><style>:root>svg{display:none}:root>svg:target{display:block}</style><svg fill="none" viewBox="0 0 64 64" id="be-aware-1" xmlns="http://www.w3.org/2000/svg"><g fill="#FF9533"><path d="M45 47v4h-1.194a7.027 7.027 0 0 1-4.373-1.534l-2.67-2.136C41.036 45.77 44 41.66 44 37c0-6.065-4.935-11-11-11s-11 4.935-11 11c0 2.979 1.171 5.768 3.297 7.852l.001.001c.053.052.116.095.171.147l-.097.389a3.008 3.008 0 0 0 1.247 3.225l2.482 1.654c.061.04.113.089.17.133l-2.229.557a2.889 2.889 0 0 1-.43.075l-5.215.521-2.264-4.528a3.012 3.012 0 0 0-1.02-1.155l-.196-.13a3.006 3.006 0 0 0-2.746-.303 3.005 3.005 0 0 0-1.829 2.071l-.052.365A2.991 2.991 0 0 0 11.171 47h-.73a2.998 2.998 0 0 0-2.847 2.052l-.152.459a2.983 2.983 0 0 0 .725 3.07l3.457 3.457a11.037 11.037 0 0 0 4.3 2.656l5.221 1.741c1.122.376 2.292.565 3.478.565h16.146c.897 0 1.795-.11 2.668-.329L45 60.28V63h18V47H45zM33 28c4.962 0 9 4.038 9 9 0 4.244-3.001 7.936-7.142 8.805L32.601 44H34v-1h2c1.654 0 3-1.346 3-3v-1c0-1.654-1.346-3-3-3h-6a1 1 0 0 1-1-1v-1c0-.552.449-1 1-1h6a1 1 0 0 1 1 1h2c0-1.654-1.346-3-3-3h-2v-1h-2v1h-2c-1.654 0-3 1.346-3 3v1c0 1.654 1.346 3 3 3h6a1 1 0 0 1 1 1v1c0 .552-.449 1-1 1h-6a1 1 0 0 1-1-1h-2c0 1.009.505 1.899 1.271 2.443-.475.029-.94.158-1.359.41a3.037 3.037 0 0 0-.44.326A8.914 8.914 0 0 1 24 37c0-4.962 4.038-9 9-9zm-1.035 15.491a3 3 0 0 0-.941-.491H32v.519l-.035-.028zm-16.672 4.461a.983.983 0 0 1 .598-.646.988.988 0 0 1 .917.102l.195.13c.145.097.262.229.34.385l1.923 3.847-.479.048a2.992 2.992 0 0 1-2.42-.864l-1.308-1.307.234-1.695zm27.659 10.779a9.043 9.043 0 0 1-2.183.269H24.623a8.99 8.99 0 0 1-2.846-.461l-5.221-1.742a9.025 9.025 0 0 1-3.518-2.173l-3.456-3.457a.994.994 0 0 1-.241-1.024l.152-.459a.997.997 0 0 1 .948-.684h.73c.267 0 .519.104.708.293l3.073 3.073a4.988 4.988 0 0 0 4.034 1.44l7.825-.782c.241-.024.479-.066.714-.125l2.849-.712c.084.424.081.869-.028 1.305l-.316 1.266 1.94.484.316-1.266a5.01 5.01 0 0 0-2.077-5.372l-2.481-1.654a1 1 0 0 1-.416-1.074l.173-.693a1.002 1.002 0 0 1 1.213-.727l1.638.41c.138.034.27.1.381.188l7.468 5.975A9.029 9.029 0 0 0 43.806 53H45v5.22l-2.048.511zM61 61H47V49h10v4h2v-4h2v12z"/><path d="M53 51c-2.206 0-4 1.794-4 4s1.794 4 4 4 4-1.794 4-4-1.794-4-4-4zm0 6c-1.103 0-2-.897-2-2s.897-2 2-2 2 .897 2 2-.897 2-2 2zm6-2h-2v2h2v-2zM23 24c0-6.065-4.935-11-11-11S1 17.935 1 24s4.935 11 11 11 11-4.935 11-11zM3 24c0-4.962 4.038-9 9-9s9 4.038 9 9-4.038 9-9 9-9-4.038-9-9z"/><path d="M13 31v-1h2c1.654 0 3-1.346 3-3v-1c0-1.654-1.346-3-3-3H9c-.552 0-1-.449-1-1v-1c0-.552.449-1 1-1h6c.552 0 1 .449 1 1h2c0-1.654-1.346-3-3-3h-2v-1h-2v1H9c-1.654 0-3 1.346-3 3v1c0 1.654 1.346 3 3 3h6c.552 0 1 .449 1 1v1c0 .552-.449 1-1 1H9c-.552 0-1-.449-1-1H6c0 1.654 1.346 3 3 3h2v1h2zM38 1h-2v6h2V1zm0 8h-2v4h2V9zm0 6h-2v10h2V15zM34 1h-2v2h2V1zm0 10h-2v13h2V11zm0-6h-2v4h2V5zm-4 2h-2v4h2V7zm0 6h-2v12h2V13zM18 1h-2v4h2V1zm0 6h-2v5h2V7zm-4-6h-2v2h2V1zm0 4h-2v6h2V5zm-4 0H8v6h2V5z"/></g></svg><svg fill="none" viewBox="0 0 64 64" id="be-aware-2" xmlns="http://www.w3.org/2000/svg"><g fill="#FF9533"><path d="M33 40h-8.35c-.826-2.327-3.043-4-5.65-4-3.309 0-6 2.691-6 6s2.691 6 6 6c.341 0 .674-.035 1-.09V51h13V40zm-14 6c-2.206 0-4-1.794-4-4s1.794-4 4-4c1.474 0 2.75.81 3.444 2H20v5.858A3.939 3.939 0 0 1 19 46zm4-4a3.966 3.966 0 0 1-1 2.618V42h1zm8 7h-9v-1.812A5.999 5.999 0 0 0 25 42h6v7zm-8.06-30.955A6.979 6.979 0 0 0 18 16c-3.86 0-7 3.14-7 7s3.14 7 7 7 7-3.14 7-7a6.958 6.958 0 0 0-.859-3.356L26.333 18H37v-2H25.667l-2.727 2.045zm-.601 7.392L19 23.434v-5.333c2.279.465 4 2.484 4 4.899 0 .889-.253 1.713-.661 2.437zM13 23a5.01 5.01 0 0 1 4-4.899v6.465l4.006 2.403A4.949 4.949 0 0 1 18 28c-2.757 0-5-2.243-5-5zm24-3h-2v2h2v-2z"/><path d="M33 20h-5v2h5v-2z"/><path d="M60.575 28.839 62.414 27 58 22.586l-1.839 1.839A14.9 14.9 0 0 0 48 22c-1.027 0-2.03.105-3 .302V7h-8V3h-9.11A7.009 7.009 0 0 0 23 1a7.009 7.009 0 0 0-4.89 2H9v4H1v56h44V51.698c.97.197 1.973.302 3 .302 8.271 0 15-6.729 15-15 0-2.921-.843-5.729-2.425-8.161zM59.586 27 44 42.586 38.414 37 40 35.414l4 4 14-14L59.586 27zM43 9v13.875c-.651.231-1.283.5-1.889.815V11H37V9h6zm-9.125 23H9v23h22v-2H11V34h22.302A15.06 15.06 0 0 0 33 37c0 2.713.735 5.253 2 7.451V53h-2v2h4v-7.837a15.099 15.099 0 0 0 2.111 1.891V57H6.889V13H9v1h28v-1h2.111v11.945A15.05 15.05 0 0 0 33.875 32zM11 5h7.983l.298-.332A5.006 5.006 0 0 1 23 3c1.413 0 2.768.608 3.719 1.668l.298.332H35v7H11V5zm32 56H3V9h6v2H4.889v48h36.223v-8.69c.606.315 1.238.584 1.889.815L43 61zm5-11c-2.531 0-4.889-.739-6.889-1.995V48h-.008C37.444 45.698 35 41.634 35 37c0-7.168 5.832-13 13-13 2.39 0 4.693.647 6.715 1.871L44 36.586l-4-4L35.586 37 44 45.414l15.129-15.129A12.92 12.92 0 0 1 61 37c0 7.168-5.832 13-13 13z"/></g></svg><svg fill="none" viewBox="0 0 64 64" id="be-aware-3" xmlns="http://www.w3.org/2000/svg"><g fill="#FF9533"><path d="M37 24c0 6.065 4.935 11 11 11s11-4.935 11-11-4.935-11-11-11-11 4.935-11 11zm20 0c0 4.962-4.038 9-9 9s-9-4.038-9-9 4.038-9 9-9 9 4.038 9 9z"/><path d="M55.714 37.739a7.075 7.075 0 0 0-.935-.376C59.649 34.882 63 29.83 63 24c0-5.743-3.248-10.737-8-13.256V4c0-1.654-1.346-3-3-3H4C2.346 1 1 2.346 1 4v44c0 1.654 1.346 3 3 3h35.184A2.966 2.966 0 0 0 39 52c0 1.654 1.346 3 3 3h1v3c0 2.757 2.243 5 5 5s5-2.243 5-5v-3.024a7.03 7.03 0 0 0 2.714-.714L58.236 53H63V39h-4.764l-2.522-1.261zM61 24c0 7.168-5.832 13-13 13s-13-5.832-13-13 5.832-13 13-13 13 5.832 13 13zM46.963 47.827c.01.059.037.113.037.173 0 .551-.449 1-1 1h-4c-.551 0-1-.449-1-1 0-.551.449-1 1-1h1.78c.549.609 1.337 1 2.22 1 .339 0 .659-.069.963-.173zM43 45h-1c-.551 0-1-.449-1-1 0-.551.449-1 1-1h1v2zm0-5v1h-1c-.551 0-1-.449-1-1 0-.551.449-1 1-1h1.184A2.966 2.966 0 0 0 43 40zM4 3h48c.551 0 1 .449 1 1v5.875A14.912 14.912 0 0 0 48 9H3V4c0-.551.449-1 1-1zM3 48V11h37.549C36.046 13.591 33 18.442 33 24c0 5.707 3.205 10.678 7.909 13.213A2.998 2.998 0 0 0 39 40c0 .771.301 1.468.78 2a2.976 2.976 0 0 0-.78 2c0 .771.301 1.468.78 2a2.976 2.976 0 0 0-.78 2c0 .352.072.686.184 1H4c-.551 0-1-.449-1-1zm38 4c0-.551.449-1 1-1h4c.551 0 1 .449 1 1 0 .551-.449 1-1 1h-4c-.551 0-1-.449-1-1zm7 9c-1.654 0-3-1.346-3-3v-3h1c1.654 0 3-1.346 3-3a2.98 2.98 0 0 0-.78-2c.48-.532.78-1.229.78-2a2.99 2.99 0 0 0-.419-1.497C48.84 46.06 49 45.55 49 45v-2h2v15c0 1.654-1.346 3-3 3zm13-10h-3.236l-2.943 1.472a5.023 5.023 0 0 1-1.82.503v-8.553a4.596 4.596 0 0 0 2.235.578H57v-2h-1.764a2.603 2.603 0 0 1-2.341-1.447L52.618 41H47v4c0 .551-.449 1-1 1-.551 0-1-.449-1-1v-5c0-.551.449-1 1-1h6.583c.772 0 1.545.183 2.236.528L57.764 41H61v10z"/><path d="m43.707 25.293-1.414 1.414L45 29.414l8.707-8.707-1.414-1.414L45 26.586l-1.293-1.293zM7 5H5v2h2V5zm8 0h-2v2h2V5zm-4 0H9v2h2V5zM5 23h10V13H5v10zm2-8h6v6H7v-6zm24-2H17v2h14v-2zm-4 4H17v2h10v-2zm4 0h-2v2h2v-2zm0 4H17v2h14v-2zM5 35h10V25H5v10zm2-8h6v6H7v-6zm24-2H17v2h14v-2zm-4 4H17v2h10v-2zm4 0h-2v2h2v-2zm0 4H17v2h14v-2zM5 47h10V37H5v10zm2-8h6v6H7v-6zm24-2H21v2h10v-2zm-12 0h-2v2h2v-2zm12 4H21v2h10v-2zm-12 0h-2v2h2v-2zm12 4H21v2h10v-2zm-12 0h-2v2h2v-2z"/></g></svg><svg fill="none" viewBox="0 0 32 32" id="facebook-icon" xmlns="http://www.w3.org/2000/svg"><path d="M16 0C7.164 0 0 7.164 0 16s7.164 16 16 16 16-7.164 16-16S24.836 0 16 0Zm3.488 15.999h-2.239v8.124h-3.357V16h-1.677v-2.8h1.677v-1.681c0-2.284.947-3.642 3.637-3.642h2.24v2.8h-1.4c-1.047 0-1.117.392-1.117 1.121l-.003 1.402h2.536l-.297 2.799Z" fill="#171717"/></svg><svg fill="none" viewBox="0 0 32 32" id="instagram-icon" xmlns="http://www.w3.org/2000/svg"><path d="M16 0C7.164 0 0 7.163 0 16c0 8.836 7.164 16 16 16s16-7.164 16-16c0-8.837-7.164-16-16-16Z" fill="#171717"/><path d="M16 13a3 3 0 1 0 0 6 3 3 0 0 0 0-6Zm0-2a5 5 0 1 1 0 10 5 5 0 0 1 0-10Zm6.5-.25a1.25 1.25 0 1 1-2.5 0 1.25 1.25 0 0 1 2.5 0ZM16 8c-2.474 0-2.878.007-4.029.058-.784.037-1.31.142-1.798.332a2.886 2.886 0 0 0-1.08.703 2.89 2.89 0 0 0-.704 1.08c-.19.49-.295 1.015-.331 1.798C8.006 13.075 8 13.461 8 16c0 2.474.007 2.878.058 4.029.037.783.142 1.31.331 1.797.17.435.37.748.702 1.08.337.336.65.537 1.08.703.494.191 1.02.297 1.8.333 1.104.052 1.49.058 4.029.058 2.474 0 2.878-.007 4.029-.058.782-.037 1.309-.142 1.797-.331a2.92 2.92 0 0 0 1.08-.702c.337-.337.538-.65.704-1.08.19-.493.296-1.02.332-1.8.052-1.104.058-1.49.058-4.029 0-2.474-.007-2.878-.058-4.029-.037-.782-.142-1.31-.332-1.798a2.91 2.91 0 0 0-.703-1.08 2.884 2.884 0 0 0-1.08-.704c-.49-.19-1.016-.295-1.798-.331C18.925 8.006 18.539 8 16 8Zm0-2c2.717 0 3.056.01 4.122.06 1.065.05 1.79.217 2.428.465.66.254 1.216.598 1.772 1.153.509.5.902 1.105 1.153 1.772.247.637.415 1.363.465 2.428.047 1.066.06 1.405.06 4.122 0 2.717-.01 3.056-.06 4.122-.05 1.065-.218 1.79-.465 2.428a4.883 4.883 0 0 1-1.153 1.772c-.5.508-1.105.902-1.772 1.153-.637.247-1.363.415-2.428.465-1.066.047-1.405.06-4.122.06-2.717 0-3.056-.01-4.122-.06-1.065-.05-1.79-.218-2.428-.465a4.89 4.89 0 0 1-1.772-1.153 4.904 4.904 0 0 1-1.153-1.772c-.248-.637-.415-1.363-.465-2.428C6.013 19.056 6 18.717 6 16c0-2.717.01-3.056.06-4.122.05-1.066.217-1.79.465-2.428a4.88 4.88 0 0 1 1.153-1.772A4.897 4.897 0 0 1 9.45 6.525c.638-.248 1.362-.415 2.428-.465C12.944 6.013 13.283 6 16 6Z" fill="#fff"/></svg><svg fill="none" viewBox="0 0 32 32" id="linkedin-icon" xmlns="http://www.w3.org/2000/svg"><path d="M16 0C7.164 0 0 7.163 0 16c0 8.836 7.164 16 16 16s16-7.164 16-16c0-8.837-7.164-16-16-16Zm-4.156 22.277H8.58v-9.82h3.264v9.82Zm-1.632-11.161h-.021c-1.096 0-1.804-.755-1.804-1.697 0-.963.73-1.696 1.846-1.696s1.804.733 1.825 1.696c0 .943-.709 1.697-1.846 1.697Zm13.401 11.161h-3.264v-5.254c0-1.32-.472-2.22-1.654-2.22-.901 0-1.438.607-1.674 1.194-.086.21-.108.503-.108.796v5.484H13.65s.043-8.898 0-9.82h3.264v1.391c.433-.669 1.209-1.622 2.942-1.622 2.147 0 3.757 1.404 3.757 4.42v5.631Z" fill="#171717"/></svg><svg fill="none" viewBox="0 0 105 59" id="logo" xmlns="http://www.w3.org/2000/svg"><g fill="#000"><path d="M0 8.132V3.461h25.36v4.671H0ZM10.144 34.56V4.328h5.138V34.56h-5.138ZM29.898 35.027c-1.936 0-3.67-.467-5.206-1.468-1.535-1.001-2.803-2.336-3.67-4.004-.935-1.669-1.335-3.537-1.335-5.606 0-2.136.467-4.004 1.335-5.673.934-1.668 2.135-3.003 3.67-4.004 1.535-1 3.27-1.468 5.206-1.468 1.601 0 3.07.334 4.337 1.068 1.268.667 2.27 1.668 3.003 2.87.734 1.2 1.135 2.602 1.135 4.137v6.14c0 1.535-.334 2.936-1.068 4.137-.734 1.202-1.735 2.203-3.003 2.87-1.335.6-2.803 1.001-4.404 1.001Zm.8-4.671c1.802 0 3.27-.601 4.405-1.802 1.134-1.201 1.668-2.736 1.668-4.672a7.965 7.965 0 0 0-.734-3.403c-.467-1.001-1.201-1.735-2.135-2.27-.935-.533-1.936-.8-3.204-.8-1.2 0-2.202.267-3.136.8-.934.535-1.602 1.335-2.136 2.27-.534.934-.8 2.135-.8 3.403 0 1.268.266 2.403.8 3.404.534 1 1.202 1.735 2.136 2.269.934.534 1.935.8 3.136.8Zm5.74 4.204v-5.74l.867-5.205-.867-5.138v-5.272h4.871V34.56h-4.871Z"/></g><g fill="#000"><path d="M10.21 48.84c-.6-.2-1.067-.4-1.468-.733l.534-1.201c.334.266.734.467 1.268.667s1.001.267 1.535.267c.6 0 1.068-.067 1.402-.267.333-.2.467-.467.467-.801 0-.267-.067-.467-.267-.6-.2-.134-.4-.268-.667-.334-.267-.067-.601-.2-1.068-.334-.668-.133-1.135-.334-1.535-.467-.4-.134-.734-.4-1.001-.734-.267-.334-.4-.734-.4-1.335 0-.467.133-.868.4-1.268s.6-.667 1.134-.934c.534-.267 1.135-.334 1.869-.334.534 0 1 .067 1.535.2.467.134.934.334 1.268.534l-.467 1.202c-.4-.2-.735-.401-1.135-.468a3.7 3.7 0 0 0-1.134-.2c-.601 0-1.068.134-1.402.334-.333.2-.467.467-.467.8 0 .267.067.468.267.601.2.134.4.267.667.334s.6.2 1.068.334c.6.133 1.135.267 1.535.467.4.133.734.4 1.001.734.267.334.4.734.4 1.268 0 .467-.133.867-.4 1.268-.267.4-.667.667-1.134.867-.534.2-1.135.334-1.87.334-.733.067-1.334-.067-1.934-.2ZM18.82 41.9h-2.803v-1.335h7.14V41.9h-2.802v7.074H18.82V41.9ZM29.764 48.974l-1.735-2.47h-2.202v2.47h-1.535v-8.409h3.47c.734 0 1.335.134 1.936.334.534.267.934.6 1.268 1.001.267.467.4 1.001.4 1.602 0 .6-.133 1.201-.467 1.601-.334.4-.734.801-1.335 1.002L31.5 48.84h-1.736v.133Zm-.534-6.673c-.333-.267-.867-.4-1.534-.4h-1.802v3.336h1.802c.667 0 1.2-.134 1.534-.467.334-.334.534-.734.534-1.268 0-.467-.2-.934-.534-1.201ZM38.84 47.039h-4.204l-.8 1.935h-1.602l3.803-8.409h1.535l3.804 8.41h-1.601l-.935-1.936Zm-.534-1.268-1.601-3.67-1.602 3.67h3.203ZM43.178 41.9h-2.803v-1.335h7.14V41.9h-2.802v7.074h-1.535V41.9ZM54.924 47.64v1.334H48.65v-8.409h6.072V41.9H50.12v2.136h4.07v1.268h-4.07v2.335h4.805ZM62.064 44.637h1.468v3.336c-.4.334-.934.601-1.534.801-.601.2-1.202.267-1.802.267-.868 0-1.602-.2-2.336-.534-.667-.4-1.201-.867-1.602-1.535a4.2 4.2 0 0 1-.6-2.202c0-.8.2-1.535.6-2.202.4-.667.935-1.201 1.602-1.535.667-.4 1.468-.534 2.336-.534.734 0 1.334.133 1.935.334.6.2 1.068.6 1.468 1l-1 .935c-.668-.667-1.402-.934-2.336-.934-.601 0-1.135.133-1.602.4-.467.267-.801.6-1.068 1.068-.267.467-.4.934-.4 1.535a3.1 3.1 0 0 0 .4 1.535c.267.467.6.8 1.068 1.068a3.1 3.1 0 0 0 1.535.4c.667 0 1.201-.134 1.735-.4v-2.803h.133ZM69.072 45.971v2.936h-1.535v-2.87L64.2 40.566h1.668l2.47 4.071 2.469-4.07h1.535l-3.27 5.405Z"/></g><g fill="#000"><path d="M14.415 57.917v.934H9.877v-6.073h4.405v.935h-3.337v1.601h2.936v.935h-2.936v1.668h3.47ZM19.554 58.851l-1.669-2.335-1.601 2.335h-1.268l2.269-3.07-2.136-3.003h1.268l1.535 2.136 1.535-2.136h1.201l-2.135 2.937 2.269 3.136h-1.268ZM25.56 53.045c.4.2.667.4.867.734.2.334.334.734.334 1.135 0 .467-.133.8-.334 1.134-.2.334-.533.6-.867.734-.4.2-.868.267-1.401.267h-1.402v1.735h-1.134v-6.073h2.469c.667.067 1.068.134 1.468.334Zm-.267 2.803c.267-.2.4-.534.4-.868 0-.333-.133-.667-.4-.867-.267-.2-.6-.334-1.134-.334h-1.335v2.403h1.334c.468-.067.868-.134 1.135-.334ZM37.506 58.851l-1.268-1.802H34.703v1.802h-1.135v-6.073h2.47c.533 0 1 .067 1.401.267.4.2.667.4.867.734.2.334.334.734.334 1.135 0 .467-.133.867-.334 1.201-.2.334-.533.6-.934.734l1.402 2.002h-1.268Zm-.4-4.805c-.268-.2-.601-.333-1.135-.333h-1.335v2.402h1.335c.467 0 .867-.133 1.134-.334.267-.2.4-.533.4-.867 0-.334-.133-.668-.4-.868ZM41.11 53.713h-2.003v-.935h5.139v.935h-2.002v5.138h-1.135v-5.138Z"/></g><path d="M60.529 13.805c-8.476 6.94-13.28 15.082-15.95 20.755h4.004c3.137-6.54 8.075-14.415 16.217-20.955C82.819-.877 104.241.458 104.241.258c-.067-.267-24.092-2.536-43.712 13.547Z" fill="#35B984"/><g fill="#000"><path d="m54.59 26.685 5.605 7.875h5.873l-8.475-11.88a44.699 44.699 0 0 0-3.004 4.005ZM54.19 17.942l-3.338-4.671h-5.94l6.074 8.409c1.068-1.335 2.135-2.536 3.203-3.738Z"/></g><path d="M32.367 57.717h-4.538v1.134h4.538v-1.134ZM32.367 52.778h-4.538v1.135h4.538v-1.135ZM32.367 55.248h-4.538v1.134h4.538v-1.134Z" fill="#35B984"/><path d="M69.204 57.917H44.58v.934h24.625v-.934ZM8.208 58.785a.734.734 0 1 0 0-1.469.734.734 0 0 0 0 1.469Z" fill="#000"/></svg><svg fill="none" viewBox="0 0 151 15" id="top-decore" xmlns="http://www.w3.org/2000/svg"><path d="M138.091 2.174c-3.256-.28-6.568-.561-9.879-.842-1.067-.093-2.189-.085-3.255-.18L117.887.9c-1.291-.092-2.637-.083-3.928-.175l-1.122.008-2.58.018-11.612.083c-.897.006-1.85.013-2.748.12-2.299.118-4.542.134-6.842.251-2.58.12-5.16.138-7.739.258-4.15.232-8.355.464-12.505.696l-7.234.355-12.446 1c-2.298.22-4.541.336-6.84.555-4.315.537-8.632.973-12.948 1.409-2.298.219-4.597.438-6.895.758-4.258.638-8.572 1.378-12.83 2.117-.897.108-1.85.317-2.802.425-1.793.317-3.64.836-5.489 1.255-.112 0-.224.102-.336.103-.224.002-.391.206-.557.51-.277.51-.385 1.118-.38 1.726.004.607.12 1.214.403 1.618.228.403.622.704.903.702 2.24-.42 4.425-.943 6.666-1.364l6.22-.956c2.241-.32 4.482-.74 6.78-1.06.897-.108 1.793-.317 2.746-.425 3.531-.33 7.006-.76 10.538-1.088l6.559-.654 2.69-.323c3.476-.329 6.952-.556 10.428-.885 2.13-.116 4.205-.333 6.335-.45.73-.005 1.402-.11 2.131-.116 3.757-.23 7.515-.357 11.272-.586l6.28-.349c.73-.005 1.514-.112 2.243-.117 3.87-.129 7.74-.156 11.666-.285 2.412-.017 4.823-.136 7.235-.153 4.095-.029 8.246-.058 12.342.014.785-.005 1.627.09 2.412.084 2.301.085 4.545.17 6.847.357 1.683.09 3.423.178 5.106.268 1.235.092 2.414.185 3.649.278 3.536.279 7.129.659 10.665 1.039l2.695.285c.954.094 1.965.188 2.92.384.168-.001.281.1.45.2.393.098.73.096 1.064-.312.334-.306.554-.916.662-1.524.215-1.319-.244-2.734-1.032-3.133-.675-.3-1.349-.396-1.968-.594-.449-.098-.898-.196-1.347-.193-.899-.197-1.797-.19-2.64-.387-1.571-.09-3.255-.28-4.883-.472Z" fill="#35B984"/></svg><svg fill="none" viewBox="0 0 24 24" id="top-link-img" xmlns="http://www.w3.org/2000/svg"><path fill-rule="evenodd" clip-rule="evenodd" d="M12 23C5.925 23 1 18.075 1 12S5.925 1 12 1s11 4.925 11 11-4.925 11-11 11zm0-2a9 9 0 1 0 0-18 9 9 0 0 0 0 18zM10.707 7.293 9.293 8.707 12.586 12l-3.293 3.293 1.414 1.414L15.414 12l-4.707-4.707z" fill="#35B984"/></svg><svg fill="none" viewBox="0 0 151 15" id="top-title-decor" xmlns="http://www.w3.org/2000/svg"><path d="M138.091 2.174c-3.256-.28-6.568-.561-9.879-.842-1.067-.093-2.189-.085-3.255-.18L117.887.9c-1.291-.092-2.637-.083-3.928-.175l-1.122.008-2.58.018-11.612.083c-.897.006-1.85.013-2.748.12-2.299.118-4.542.134-6.842.251-2.58.12-5.16.138-7.739.258-4.15.232-8.355.464-12.505.696l-7.234.355-12.446 1c-2.298.22-4.541.336-6.84.555-4.315.537-8.632.973-12.948 1.409-2.298.219-4.597.438-6.895.758-4.258.638-8.572 1.378-12.83 2.117-.897.108-1.85.317-2.802.425-1.793.317-3.64.836-5.489 1.255-.112 0-.224.102-.336.103-.224.002-.391.206-.557.51-.277.51-.385 1.118-.38 1.726.004.607.12 1.214.403 1.618.228.403.622.704.903.702 2.24-.42 4.425-.943 6.666-1.364l6.22-.956c2.241-.32 4.482-.74 6.78-1.06.897-.108 1.793-.317 2.746-.425 3.531-.33 7.006-.76 10.538-1.088l6.559-.654 2.69-.323c3.476-.329 6.952-.556 10.428-.885 2.13-.116 4.205-.333 6.335-.45.73-.005 1.402-.11 2.131-.116 3.757-.23 7.515-.357 11.272-.586l6.28-.349c.73-.005 1.514-.112 2.243-.117 3.87-.129 7.74-.156 11.666-.285 2.412-.017 4.823-.136 7.235-.153 4.095-.029 8.246-.058 12.342.014.785-.005 1.627.09 2.412.084 2.301.085 4.545.17 6.847.357 1.683.09 3.423.178 5.106.268 1.235.092 2.414.185 3.649.278 3.536.279 7.129.659 10.665 1.039l2.695.285c.954.094 1.965.188 2.92.384.168-.001.281.1.45.2.393.098.73.096 1.064-.312.334-.306.554-.916.662-1.524.215-1.319-.244-2.734-1.032-3.133-.675-.3-1.349-.396-1.968-.594-.449-.098-.898-.196-1.347-.193-.899-.197-1.797-.19-2.64-.387-1.571-.09-3.255-.28-4.883-.472z" fill="#35B984"/></svg><svg fill="none" viewBox="0 0 24 24" id="top-worth" xmlns="http://www.w3.org/2000/svg"><g clip-path="url(#ka)"><path d="M14 2a8 8 0 0 1 3.292 15.293A8 8 0 1 1 6.706 6.707 8.003 8.003 0 0 1 14 2Zm-4 6a6 6 0 1 0 0 12 6 6 0 0 0 0-12Zm1 1v1h2v2H9a.5.5 0 0 0-.09.992L9 13h2a2.5 2.5 0 0 1 0 5v1H9v-1H7v-2h4a.5.5 0 0 0 .09-.992L11 15H9a2.5 2.5 0 0 1 0-5V9h2Zm3-5a5.985 5.985 0 0 0-4.484 2.013 8 8 0 0 1 8.47 8.471A6 6 0 0 0 14 4Z" fill="#858585"/></g><defs><clipPath id="ka"><path fill="#fff" d="M0 0h24v24H0z"/></clipPath></defs></svg></svg>