<?xml version="1.0" encoding="utf-8"?><svg viewBox="0 0 151 59" xmlns="http://www.w3.org/2000/svg" xmlns:xlink="http://www.w3.org/1999/xlink"><style>:root>svg{display:none}:root>svg:target{display:block}</style><svg fill="none" viewBox="0 0 32 32" id="facebook-icon" xmlns="http://www.w3.org/2000/svg"><path d="M16 0C7.164 0 0 7.164 0 16s7.164 16 16 16 16-7.164 16-16S24.836 0 16 0Zm3.488 15.999h-2.239v8.124h-3.357V16h-1.677v-2.8h1.677v-1.681c0-2.284.947-3.642 3.637-3.642h2.24v2.8h-1.4c-1.047 0-1.117.392-1.117 1.121l-.003 1.402h2.536l-.297 2.799Z" fill="#171717"/></svg><svg fill="none" viewBox="0 0 32 32" id="instagram-icon" xmlns="http://www.w3.org/2000/svg"><path d="M16 0C7.164 0 0 7.163 0 16c0 8.836 7.164 16 16 16s16-7.164 16-16c0-8.837-7.164-16-16-16Z" fill="#171717"/><path d="M16 13a3 3 0 1 0 0 6 3 3 0 0 0 0-6Zm0-2a5 5 0 1 1 0 10 5 5 0 0 1 0-10Zm6.5-.25a1.25 1.25 0 1 1-2.5 0 1.25 1.25 0 0 1 2.5 0ZM16 8c-2.474 0-2.878.007-4.029.058-.784.037-1.31.142-1.798.332a2.886 2.886 0 0 0-1.08.703 2.89 2.89 0 0 0-.704 1.08c-.19.49-.295 1.015-.331 1.798C8.006 13.075 8 13.461 8 16c0 2.474.007 2.878.058 4.029.037.783.142 1.31.331 1.797.17.435.37.748.702 1.08.337.336.65.537 1.08.703.494.191 1.02.297 1.8.333 1.104.052 1.49.058 4.029.058 2.474 0 2.878-.007 4.029-.058.782-.037 1.309-.142 1.797-.331a2.92 2.92 0 0 0 1.08-.702c.337-.337.538-.65.704-1.08.19-.493.296-1.02.332-1.8.052-1.104.058-1.49.058-4.029 0-2.474-.007-2.878-.058-4.029-.037-.782-.142-1.31-.332-1.798a2.91 2.91 0 0 0-.703-1.08 2.884 2.884 0 0 0-1.08-.704c-.49-.19-1.016-.295-1.798-.331C18.925 8.006 18.539 8 16 8Zm0-2c2.717 0 3.056.01 4.122.06 1.065.05 1.79.217 2.428.465.66.254 1.216.598 1.772 1.153.509.5.902 1.105 1.153 1.772.247.637.415 1.363.465 2.428.047 1.066.06 1.405.06 4.122 0 2.717-.01 3.056-.06 4.122-.05 1.065-.218 1.79-.465 2.428a4.883 4.883 0 0 1-1.153 1.772c-.5.508-1.105.902-1.772 1.153-.637.247-1.363.415-2.428.465-1.066.047-1.405.06-4.122.06-2.717 0-3.056-.01-4.122-.06-1.065-.05-1.79-.218-2.428-.465a4.89 4.89 0 0 1-1.772-1.153 4.904 4.904 0 0 1-1.153-1.772c-.248-.637-.415-1.363-.465-2.428C6.013 19.056 6 18.717 6 16c0-2.717.01-3.056.06-4.122.05-1.066.217-1.79.465-2.428a4.88 4.88 0 0 1 1.153-1.772A4.897 4.897 0 0 1 9.45 6.525c.638-.248 1.362-.415 2.428-.465C12.944 6.013 13.283 6 16 6Z" fill="#fff"/></svg><svg fill="none" viewBox="0 0 32 32" id="linkedin-icon" xmlns="http://www.w3.org/2000/svg"><path d="M16 0C7.164 0 0 7.163 0 16c0 8.836 7.164 16 16 16s16-7.164 16-16c0-8.837-7.164-16-16-16Zm-4.156 22.277H8.58v-9.82h3.264v9.82Zm-1.632-11.161h-.021c-1.096 0-1.804-.755-1.804-1.697 0-.963.73-1.696 1.846-1.696s1.804.733 1.825 1.696c0 .943-.709 1.697-1.846 1.697Zm13.401 11.161h-3.264v-5.254c0-1.32-.472-2.22-1.654-2.22-.901 0-1.438.607-1.674 1.194-.086.21-.108.503-.108.796v5.484H13.65s.043-8.898 0-9.82h3.264v1.391c.433-.669 1.209-1.622 2.942-1.622 2.147 0 3.757 1.404 3.757 4.42v5.631Z" fill="#171717"/></svg><svg fill="none" viewBox="0 0 105 59" id="logo" xmlns="http://www.w3.org/2000/svg"><g fill="#000"><path d="M0 8.132V3.461h25.36v4.671H0ZM10.144 34.56V4.328h5.138V34.56h-5.138ZM29.898 35.027c-1.936 0-3.67-.467-5.206-1.468-1.535-1.001-2.803-2.336-3.67-4.004-.935-1.669-1.335-3.537-1.335-5.606 0-2.136.467-4.004 1.335-5.673.934-1.668 2.135-3.003 3.67-4.004 1.535-1 3.27-1.468 5.206-1.468 1.601 0 3.07.334 4.337 1.068 1.268.667 2.27 1.668 3.003 2.87.734 1.2 1.135 2.602 1.135 4.137v6.14c0 1.535-.334 2.936-1.068 4.137-.734 1.202-1.735 2.203-3.003 2.87-1.335.6-2.803 1.001-4.404 1.001Zm.8-4.671c1.802 0 3.27-.601 4.405-1.802 1.134-1.201 1.668-2.736 1.668-4.672a7.965 7.965 0 0 0-.734-3.403c-.467-1.001-1.201-1.735-2.135-2.27-.935-.533-1.936-.8-3.204-.8-1.2 0-2.202.267-3.136.8-.934.535-1.602 1.335-2.136 2.27-.534.934-.8 2.135-.8 3.403 0 1.268.266 2.403.8 3.404.534 1 1.202 1.735 2.136 2.269.934.534 1.935.8 3.136.8Zm5.74 4.204v-5.74l.867-5.205-.867-5.138v-5.272h4.871V34.56h-4.871Z"/></g><g fill="#000"><path d="M10.21 48.84c-.6-.2-1.067-.4-1.468-.733l.534-1.201c.334.266.734.467 1.268.667s1.001.267 1.535.267c.6 0 1.068-.067 1.402-.267.333-.2.467-.467.467-.801 0-.267-.067-.467-.267-.6-.2-.134-.4-.268-.667-.334-.267-.067-.601-.2-1.068-.334-.668-.133-1.135-.334-1.535-.467-.4-.134-.734-.4-1.001-.734-.267-.334-.4-.734-.4-1.335 0-.467.133-.868.4-1.268s.6-.667 1.134-.934c.534-.267 1.135-.334 1.869-.334.534 0 1 .067 1.535.2.467.134.934.334 1.268.534l-.467 1.202c-.4-.2-.735-.401-1.135-.468a3.7 3.7 0 0 0-1.134-.2c-.601 0-1.068.134-1.402.334-.333.2-.467.467-.467.8 0 .267.067.468.267.601.2.134.4.267.667.334s.6.2 1.068.334c.6.133 1.135.267 1.535.467.4.133.734.4 1.001.734.267.334.4.734.4 1.268 0 .467-.133.867-.4 1.268-.267.4-.667.667-1.134.867-.534.2-1.135.334-1.87.334-.733.067-1.334-.067-1.934-.2ZM18.82 41.9h-2.803v-1.335h7.14V41.9h-2.802v7.074H18.82V41.9ZM29.764 48.974l-1.735-2.47h-2.202v2.47h-1.535v-8.409h3.47c.734 0 1.335.134 1.936.334.534.267.934.6 1.268 1.001.267.467.4 1.001.4 1.602 0 .6-.133 1.201-.467 1.601-.334.4-.734.801-1.335 1.002L31.5 48.84h-1.736v.133Zm-.534-6.673c-.333-.267-.867-.4-1.534-.4h-1.802v3.336h1.802c.667 0 1.2-.134 1.534-.467.334-.334.534-.734.534-1.268 0-.467-.2-.934-.534-1.201ZM38.84 47.039h-4.204l-.8 1.935h-1.602l3.803-8.409h1.535l3.804 8.41h-1.601l-.935-1.936Zm-.534-1.268-1.601-3.67-1.602 3.67h3.203ZM43.178 41.9h-2.803v-1.335h7.14V41.9h-2.802v7.074h-1.535V41.9ZM54.924 47.64v1.334H48.65v-8.409h6.072V41.9H50.12v2.136h4.07v1.268h-4.07v2.335h4.805ZM62.064 44.637h1.468v3.336c-.4.334-.934.601-1.534.801-.601.2-1.202.267-1.802.267-.868 0-1.602-.2-2.336-.534-.667-.4-1.201-.867-1.602-1.535a4.2 4.2 0 0 1-.6-2.202c0-.8.2-1.535.6-2.202.4-.667.935-1.201 1.602-1.535.667-.4 1.468-.534 2.336-.534.734 0 1.334.133 1.935.334.6.2 1.068.6 1.468 1l-1 .935c-.668-.667-1.402-.934-2.336-.934-.601 0-1.135.133-1.602.4-.467.267-.801.6-1.068 1.068-.267.467-.4.934-.4 1.535a3.1 3.1 0 0 0 .4 1.535c.267.467.6.8 1.068 1.068a3.1 3.1 0 0 0 1.535.4c.667 0 1.201-.134 1.735-.4v-2.803h.133ZM69.072 45.971v2.936h-1.535v-2.87L64.2 40.566h1.668l2.47 4.071 2.469-4.07h1.535l-3.27 5.405Z"/></g><g fill="#000"><path d="M14.415 57.917v.934H9.877v-6.073h4.405v.935h-3.337v1.601h2.936v.935h-2.936v1.668h3.47ZM19.554 58.851l-1.669-2.335-1.601 2.335h-1.268l2.269-3.07-2.136-3.003h1.268l1.535 2.136 1.535-2.136h1.201l-2.135 2.937 2.269 3.136h-1.268ZM25.56 53.045c.4.2.667.4.867.734.2.334.334.734.334 1.135 0 .467-.133.8-.334 1.134-.2.334-.533.6-.867.734-.4.2-.868.267-1.401.267h-1.402v1.735h-1.134v-6.073h2.469c.667.067 1.068.134 1.468.334Zm-.267 2.803c.267-.2.4-.534.4-.868 0-.333-.133-.667-.4-.867-.267-.2-.6-.334-1.134-.334h-1.335v2.403h1.334c.468-.067.868-.134 1.135-.334ZM37.506 58.851l-1.268-1.802H34.703v1.802h-1.135v-6.073h2.47c.533 0 1 .067 1.401.267.4.2.667.4.867.734.2.334.334.734.334 1.135 0 .467-.133.867-.334 1.201-.2.334-.533.6-.934.734l1.402 2.002h-1.268Zm-.4-4.805c-.268-.2-.601-.333-1.135-.333h-1.335v2.402h1.335c.467 0 .867-.133 1.134-.334.267-.2.4-.533.4-.867 0-.334-.133-.668-.4-.868ZM41.11 53.713h-2.003v-.935h5.139v.935h-2.002v5.138h-1.135v-5.138Z"/></g><path d="M60.529 13.805c-8.476 6.94-13.28 15.082-15.95 20.755h4.004c3.137-6.54 8.075-14.415 16.217-20.955C82.819-.877 104.241.458 104.241.258c-.067-.267-24.092-2.536-43.712 13.547Z" fill="#35B984"/><g fill="#000"><path d="m54.59 26.685 5.605 7.875h5.873l-8.475-11.88a44.699 44.699 0 0 0-3.004 4.005ZM54.19 17.942l-3.338-4.671h-5.94l6.074 8.409c1.068-1.335 2.135-2.536 3.203-3.738Z"/></g><path d="M32.367 57.717h-4.538v1.134h4.538v-1.134ZM32.367 52.778h-4.538v1.135h4.538v-1.135ZM32.367 55.248h-4.538v1.134h4.538v-1.134Z" fill="#35B984"/><path d="M69.204 57.917H44.58v.934h24.625v-.934ZM8.208 58.785a.734.734 0 1 0 0-1.469.734.734 0 0 0 0 1.469Z" fill="#000"/></svg><svg fill="none" viewBox="0 0 151 15" id="top-decore" xmlns="http://www.w3.org/2000/svg"><path d="M138.091 2.174c-3.256-.28-6.568-.561-9.879-.842-1.067-.093-2.189-.085-3.255-.18L117.887.9c-1.291-.092-2.637-.083-3.928-.175l-1.122.008-2.58.018-11.612.083c-.897.006-1.85.013-2.748.12-2.299.118-4.542.134-6.842.251-2.58.12-5.16.138-7.739.258-4.15.232-8.355.464-12.505.696l-7.234.355-12.446 1c-2.298.22-4.541.336-6.84.555-4.315.537-8.632.973-12.948 1.409-2.298.219-4.597.438-6.895.758-4.258.638-8.572 1.378-12.83 2.117-.897.108-1.85.317-2.802.425-1.793.317-3.64.836-5.489 1.255-.112 0-.224.102-.336.103-.224.002-.391.206-.557.51-.277.51-.385 1.118-.38 1.726.004.607.12 1.214.403 1.618.228.403.622.704.903.702 2.24-.42 4.425-.943 6.666-1.364l6.22-.956c2.241-.32 4.482-.74 6.78-1.06.897-.108 1.793-.317 2.746-.425 3.531-.33 7.006-.76 10.538-1.088l6.559-.654 2.69-.323c3.476-.329 6.952-.556 10.428-.885 2.13-.116 4.205-.333 6.335-.45.73-.005 1.402-.11 2.131-.116 3.757-.23 7.515-.357 11.272-.586l6.28-.349c.73-.005 1.514-.112 2.243-.117 3.87-.129 7.74-.156 11.666-.285 2.412-.017 4.823-.136 7.235-.153 4.095-.029 8.246-.058 12.342.014.785-.005 1.627.09 2.412.084 2.301.085 4.545.17 6.847.357 1.683.09 3.423.178 5.106.268 1.235.092 2.414.185 3.649.278 3.536.279 7.129.659 10.665 1.039l2.695.285c.954.094 1.965.188 2.92.384.168-.001.281.1.45.2.393.098.73.096 1.064-.312.334-.306.554-.916.662-1.524.215-1.319-.244-2.734-1.032-3.133-.675-.3-1.349-.396-1.968-.594-.449-.098-.898-.196-1.347-.193-.899-.197-1.797-.19-2.64-.387-1.571-.09-3.255-.28-4.883-.472Z" fill="#35B984"/></svg><svg fill="none" viewBox="0 0 24 24" id="top-link-img" xmlns="http://www.w3.org/2000/svg"><path fill-rule="evenodd" clip-rule="evenodd" d="M12 23C5.925 23 1 18.075 1 12S5.925 1 12 1s11 4.925 11 11-4.925 11-11 11Zm0-2a9 9 0 1 0 0-18 9 9 0 0 0 0 18ZM10.707 7.293 9.293 8.707 12.586 12l-3.293 3.293 1.414 1.414L15.414 12l-4.707-4.707Z" fill="#35B984"/></svg><svg fill="none" viewBox="0 0 24 24" id="top-worth" xmlns="http://www.w3.org/2000/svg"><g clip-path="url(#ga)"><path d="M14 2a8 8 0 0 1 3.292 15.293A8 8 0 1 1 6.706 6.707 8.003 8.003 0 0 1 14 2Zm-4 6a6 6 0 1 0 0 12 6 6 0 0 0 0-12Zm1 1v1h2v2H9a.5.5 0 0 0-.09.992L9 13h2a2.5 2.5 0 0 1 0 5v1H9v-1H7v-2h4a.5.5 0 0 0 .09-.992L11 15H9a2.5 2.5 0 0 1 0-5V9h2Zm3-5a5.985 5.985 0 0 0-4.484 2.013 8 8 0 0 1 8.47 8.471A6 6 0 0 0 14 4Z" fill="#858585"/></g><defs><clipPath id="ga"><path fill="#fff" d="M0 0h24v24H0z"/></clipPath></defs></svg></svg>