<svg width="64" height="64" viewBox="0 0 64 64" fill="none" xmlns="http://www.w3.org/2000/svg">
<g id="6081571_checklist_inspection_overview_search_verification_icon 1">
<g id="Group">
<path id="Vector" d="M37 24C37 30.065 41.935 35 48 35C54.065 35 59 30.065 59 24C59 17.935 54.065 13 48 13C41.935 13 37 17.935 37 24ZM57 24C57 28.962 52.962 33 48 33C43.038 33 39 28.962 39 24C39 19.038 43.038 15 48 15C52.962 15 57 19.038 57 24Z" fill="#FF9533"/>
<path id="Vector_2" d="M55.714 37.739C55.413 37.589 55.099 37.469 54.779 37.363C59.649 34.882 63 29.83 63 24C63 18.257 59.752 13.263 55 10.744V4C55 2.346 53.654 1 52 1H4C2.346 1 1 2.346 1 4V48C1 49.654 2.346 51 4 51H39.184C39.072 51.314 39 51.648 39 52C39 53.654 40.346 55 42 55H43V58C43 60.757 45.243 63 48 63C50.757 63 53 60.757 53 58V54.976C53.941 54.919 54.872 54.683 55.714 54.262L58.236 53H63V39H58.236L55.714 37.739ZM61 24C61 31.168 55.168 37 48 37C40.832 37 35 31.168 35 24C35 16.832 40.832 11 48 11C55.168 11 61 16.832 61 24ZM46.963 47.827C46.973 47.886 47 47.94 47 48C47 48.551 46.551 49 46 49H42C41.449 49 41 48.551 41 48C41 47.449 41.449 47 42 47H43.78C44.329 47.609 45.117 48 46 48C46.339 48 46.659 47.931 46.963 47.827ZM43 45H42C41.449 45 41 44.551 41 44C41 43.449 41.449 43 42 43H43V45ZM43 40V41H42C41.449 41 41 40.551 41 40C41 39.449 41.449 39 42 39H43.184C43.072 39.314 43 39.648 43 40ZM4 3H52C52.551 3 53 3.449 53 4V9.875C51.433 9.319 49.755 9 48 9H3V4C3 3.449 3.449 3 4 3ZM3 48V11H40.549C36.046 13.591 33 18.442 33 24C33 29.707 36.205 34.678 40.909 37.213C39.794 37.651 39 38.731 39 40C39 40.771 39.301 41.468 39.78 42C39.3 42.532 39 43.229 39 44C39 44.771 39.301 45.468 39.78 46C39.3 46.532 39 47.229 39 48C39 48.352 39.072 48.686 39.184 49H4C3.449 49 3 48.551 3 48ZM41 52C41 51.449 41.449 51 42 51H46C46.551 51 47 51.449 47 52C47 52.551 46.551 53 46 53H42C41.449 53 41 52.551 41 52ZM48 61C46.346 61 45 59.654 45 58V55H46C47.654 55 49 53.654 49 52C49 51.229 48.699 50.532 48.22 50C48.7 49.468 49 48.771 49 48C49 47.466 48.843 46.956 48.581 46.503C48.84 46.06 49 45.55 49 45V43H51V58C51 59.654 49.654 61 48 61ZM61 51H57.764L54.821 52.472C54.254 52.755 53.632 52.922 53.001 52.975V44.422C53.67 44.793 54.433 45 55.236 45H57V43H55.236C54.238 43 53.341 42.445 52.895 41.553L52.618 41H47V45C47 45.551 46.551 46 46 46C45.449 46 45 45.551 45 45V40C45 39.449 45.449 39 46 39H52.583C53.355 39 54.128 39.183 54.819 39.528L57.764 41H61V51Z" fill="#FF9533"/>
<path id="Vector_3" d="M43.707 25.293L42.293 26.707L45 29.414L53.707 20.707L52.293 19.293L45 26.586L43.707 25.293Z" fill="#FF9533"/>
<path id="Vector_4" d="M7 5H5V7H7V5Z" fill="#FF9533"/>
<path id="Vector_5" d="M15 5H13V7H15V5Z" fill="#FF9533"/>
<path id="Vector_6" d="M11 5H9V7H11V5Z" fill="#FF9533"/>
<path id="Vector_7" d="M5 23H15V13H5V23ZM7 15H13V21H7V15Z" fill="#FF9533"/>
<path id="Vector_8" d="M31 13H17V15H31V13Z" fill="#FF9533"/>
<path id="Vector_9" d="M27 17H17V19H27V17Z" fill="#FF9533"/>
<path id="Vector_10" d="M31 17H29V19H31V17Z" fill="#FF9533"/>
<path id="Vector_11" d="M31 21H17V23H31V21Z" fill="#FF9533"/>
<path id="Vector_12" d="M5 35H15V25H5V35ZM7 27H13V33H7V27Z" fill="#FF9533"/>
<path id="Vector_13" d="M31 25H17V27H31V25Z" fill="#FF9533"/>
<path id="Vector_14" d="M27 29H17V31H27V29Z" fill="#FF9533"/>
<path id="Vector_15" d="M31 29H29V31H31V29Z" fill="#FF9533"/>
<path id="Vector_16" d="M31 33H17V35H31V33Z" fill="#FF9533"/>
<path id="Vector_17" d="M5 47H15V37H5V47ZM7 39H13V45H7V39Z" fill="#FF9533"/>
<path id="Vector_18" d="M31 37H21V39H31V37Z" fill="#FF9533"/>
<path id="Vector_19" d="M19 37H17V39H19V37Z" fill="#FF9533"/>
<path id="Vector_20" d="M31 41H21V43H31V41Z" fill="#FF9533"/>
<path id="Vector_21" d="M19 41H17V43H19V41Z" fill="#FF9533"/>
<path id="Vector_22" d="M31 45H21V47H31V45Z" fill="#FF9533"/>
<path id="Vector_23" d="M19 45H17V47H19V45Z" fill="#FF9533"/>
</g>
</g>
</svg>
