<svg width="64" height="64" viewBox="0 0 64 64" fill="none" xmlns="http://www.w3.org/2000/svg">
<g id="Layer_1_1_">
<g id="Group">
<path id="Vector" d="M45 47V51H43.806C42.223 51 40.669 50.455 39.433 49.466L36.763 47.33C41.036 45.77 44 41.66 44 37C44 30.935 39.065 26 33 26C26.935 26 22 30.935 22 37C22 39.979 23.171 42.768 25.297 44.852L25.298 44.853C25.351 44.905 25.414 44.948 25.469 45L25.372 45.389C25.065 46.616 25.566 47.91 26.619 48.614L29.101 50.268C29.162 50.308 29.214 50.357 29.271 50.401L27.042 50.958C26.9 50.994 26.756 51.019 26.612 51.033L21.397 51.554L19.133 47.026C18.9 46.56 18.548 46.162 18.113 45.871L17.917 45.741C17.107 45.201 16.08 45.087 15.171 45.438C14.262 45.79 13.578 46.564 13.342 47.509L13.29 47.874C12.724 47.312 11.971 47 11.171 47H10.441C9.14802 47 8.00402 47.824 7.59402 49.052L7.44202 49.511C7.08002 50.596 7.35802 51.772 8.16702 52.581L11.624 56.038C12.827 57.24 14.313 58.159 15.924 58.694L21.145 60.435C22.267 60.811 23.437 61 24.623 61H40.769C41.666 61 42.564 60.89 43.437 60.671L45 60.28V63H63V47H45ZM33 28C37.962 28 42 32.038 42 37C42 41.244 38.999 44.936 34.858 45.805L32.601 44H34V43H36C37.654 43 39 41.654 39 40V39C39 37.346 37.654 36 36 36H30C29.448 36 29 35.552 29 35V34C29 33.448 29.449 33 30 33H36C36.552 33 37 33.448 37 34H39C39 32.346 37.654 31 36 31H34V30H32V31H30C28.346 31 27 32.346 27 34V35C27 36.654 28.346 38 30 38H36C36.552 38 37 38.448 37 39V40C37 40.552 36.551 41 36 41H30C29.448 41 29 40.552 29 40H27C27 41.009 27.505 41.899 28.271 42.443C27.796 42.472 27.331 42.601 26.912 42.853C26.753 42.948 26.608 43.06 26.472 43.179C24.881 41.503 24 39.325 24 37C24 32.038 28.038 28 33 28ZM31.965 43.491C31.687 43.269 31.362 43.111 31.024 43H32V43.519L31.965 43.491ZM15.293 47.952C15.381 47.653 15.597 47.419 15.891 47.306C16.199 47.187 16.533 47.224 16.808 47.408L17.003 47.538C17.148 47.635 17.265 47.767 17.343 47.923L19.266 51.77L18.787 51.818C17.883 51.906 17.005 51.592 16.367 50.954L15.059 49.647L15.293 47.952ZM42.952 58.731C42.237 58.909 41.503 59 40.769 59H24.623C23.653 59 22.696 58.845 21.777 58.539L16.556 56.797C15.238 56.359 14.022 55.608 13.038 54.624L9.58202 51.167C9.31202 50.897 9.22001 50.505 9.34101 50.143L9.49302 49.684C9.62902 49.274 10.01 49 10.441 49H11.171C11.438 49 11.69 49.104 11.879 49.293L14.952 52.366C16.017 53.431 17.492 53.956 18.986 53.806L26.811 53.024C27.052 53 27.29 52.958 27.525 52.899L30.374 52.187C30.458 52.611 30.455 53.056 30.346 53.492L30.03 54.758L31.97 55.242L32.286 53.976C32.797 51.932 31.962 49.773 30.209 48.604L27.728 46.95C27.377 46.716 27.209 46.284 27.312 45.876L27.485 45.183C27.549 44.924 27.712 44.705 27.941 44.568C28.17 44.431 28.437 44.393 28.698 44.456L30.336 44.866C30.474 44.9 30.606 44.966 30.717 45.054L38.185 51.029C39.773 52.3 41.77 53 43.806 53H45V58.22L42.952 58.731ZM61 61H47V49H57V53H59V49H61V61Z" fill="#FF9533"/>
<path id="Vector_2" d="M53 51C50.794 51 49 52.794 49 55C49 57.206 50.794 59 53 59C55.206 59 57 57.206 57 55C57 52.794 55.206 51 53 51ZM53 57C51.897 57 51 56.103 51 55C51 53.897 51.897 53 53 53C54.103 53 55 53.897 55 55C55 56.103 54.103 57 53 57Z" fill="#FF9533"/>
<path id="Vector_3" d="M59 55H57V57H59V55Z" fill="#FF9533"/>
<path id="Vector_4" d="M23 24C23 17.935 18.065 13 12 13C5.935 13 1 17.935 1 24C1 30.065 5.935 35 12 35C18.065 35 23 30.065 23 24ZM3 24C3 19.038 7.038 15 12 15C16.962 15 21 19.038 21 24C21 28.962 16.962 33 12 33C7.038 33 3 28.962 3 24Z" fill="#FF9533"/>
<path id="Vector_5" d="M13 31V30H15C16.654 30 18 28.654 18 27V26C18 24.346 16.654 23 15 23H9C8.448 23 8 22.551 8 22V21C8 20.448 8.449 20 9 20H15C15.552 20 16 20.449 16 21H18C18 19.346 16.654 18 15 18H13V17H11V18H9C7.346 18 6 19.346 6 21V22C6 23.654 7.346 25 9 25H15C15.552 25 16 25.449 16 26V27C16 27.552 15.551 28 15 28H9C8.448 28 8 27.551 8 27H6C6 28.654 7.346 30 9 30H11V31H13Z" fill="#FF9533"/>
<path id="Vector_6" d="M38 1H36V7H38V1Z" fill="#FF9533"/>
<path id="Vector_7" d="M38 9H36V13H38V9Z" fill="#FF9533"/>
<path id="Vector_8" d="M38 15H36V25H38V15Z" fill="#FF9533"/>
<path id="Vector_9" d="M34 1H32V3H34V1Z" fill="#FF9533"/>
<path id="Vector_10" d="M34 11H32V24H34V11Z" fill="#FF9533"/>
<path id="Vector_11" d="M34 5H32V9H34V5Z" fill="#FF9533"/>
<path id="Vector_12" d="M30 7H28V11H30V7Z" fill="#FF9533"/>
<path id="Vector_13" d="M30 13H28V25H30V13Z" fill="#FF9533"/>
<path id="Vector_14" d="M18 1H16V5H18V1Z" fill="#FF9533"/>
<path id="Vector_15" d="M18 7H16V12H18V7Z" fill="#FF9533"/>
<path id="Vector_16" d="M14 1H12V3H14V1Z" fill="#FF9533"/>
<path id="Vector_17" d="M14 5H12V11H14V5Z" fill="#FF9533"/>
<path id="Vector_18" d="M10 5H8V11H10V5Z" fill="#FF9533"/>
</g>
</g>
</svg>
