<svg width="64" height="64" viewBox="0 0 64 64" fill="none" xmlns="http://www.w3.org/2000/svg">
<g id="Layer_1_1_">
<g id="Group">
<path id="Vector" d="M33 40H24.65C23.824 37.673 21.607 36 19 36C15.691 36 13 38.691 13 42C13 45.309 15.691 48 19 48C19.341 48 19.674 47.965 20 47.91V51H33V40ZM19 46C16.794 46 15 44.206 15 42C15 39.794 16.794 38 19 38C20.474 38 21.75 38.81 22.444 40H20V45.858C19.678 45.942 19.347 46 19 46ZM23 42C23 43.005 22.615 43.914 22 44.618V42H23ZM31 49H22V47.188C23.79 46.149 25 44.215 25 42H31V49Z" fill="#FF9533"/>
<path id="Vector_2" d="M22.94 18.045C21.673 16.782 19.926 16 18 16C14.14 16 11 19.14 11 23C11 26.86 14.14 30 18 30C21.86 30 25 26.86 25 23C25 21.785 24.688 20.641 24.141 19.644L26.333 18H37V16H25.667L22.94 18.045ZM22.339 25.437L19 23.434V18.101C21.279 18.566 23 20.585 23 23C23 23.889 22.747 24.713 22.339 25.437ZM13 23C13 20.586 14.721 18.566 17 18.101V24.566L21.006 26.969C20.166 27.607 19.133 28 18 28C15.243 28 13 25.757 13 23Z" fill="#FF9533"/>
<path id="Vector_3" d="M37 20H35V22H37V20Z" fill="#FF9533"/>
<path id="Vector_4" d="M33 20H28V22H33V20Z" fill="#FF9533"/>
<path id="Vector_5" d="M60.575 28.839L62.414 27L58 22.586L56.161 24.425C53.729 22.843 50.922 22 48 22C46.973 22 45.97 22.105 45 22.302V7H37V3H27.89C26.584 1.724 24.827 1 23 1C21.173 1 19.416 1.724 18.11 3H9V7H1V63H45V51.698C45.97 51.895 46.973 52 48 52C56.271 52 63 45.271 63 37C63 34.079 62.157 31.271 60.575 28.839ZM59.586 27L44 42.586L38.414 37L40 35.414L44 39.414L58 25.414L59.586 27ZM43 9V22.875C42.349 23.106 41.717 23.375 41.111 23.69V11H37V9H43ZM33.875 32H9V55H31V53H11V34H33.302C33.105 34.97 33 35.973 33 37C33 39.713 33.735 42.253 35 44.451V53H33V55H37V47.163C37.643 47.858 38.349 48.491 39.111 49.054V57H6.889V13H9V14H37V13H39.111V24.945C36.726 26.709 34.886 29.155 33.875 32ZM11 5H18.983L19.281 4.668C20.232 3.608 21.587 3 23 3C24.413 3 25.768 3.608 26.719 4.668L27.017 5H35V11V12H11V9V7V5ZM43 61H3V9H9V11H4.889V59H41.112V50.31C41.718 50.625 42.35 50.894 43.001 51.125L43 61ZM48 50C45.469 50 43.111 49.261 41.111 48.005V48H41.103C37.444 45.698 35 41.634 35 37C35 29.832 40.832 24 48 24C50.39 24 52.693 24.647 54.715 25.871L44 36.586L40 32.586L35.586 37L44 45.414L59.129 30.285C60.353 32.308 61 34.611 61 37C61 44.168 55.168 50 48 50Z" fill="#FF9533"/>
</g>
</g>
</svg>
