<svg width="249" height="691" viewBox="0 0 249 691" fill="none" xmlns="http://www.w3.org/2000/svg">
<path opacity="0.1" fill-rule="evenodd" clip-rule="evenodd" d="M243.725 324.928L246.89 319.653L241.614 317.544L216.292 302.774C216.292 302.774 214.182 308.049 213.127 306.994C212.072 306.994 211.017 308.049 209.962 309.104C208.907 310.159 202.576 321.763 202.576 321.763C202.576 321.763 200.466 319.653 200.466 318.598C200.466 317.544 198.356 315.434 195.191 313.324C192.025 311.214 186.75 309.104 186.75 309.104C186.75 309.104 185.695 303.829 184.64 302.774C183.585 301.719 182.53 297.499 182.53 297.499C182.53 297.499 180.419 289.06 179.364 284.84C177.254 280.62 176.199 279.565 175.144 277.455C174.089 275.345 174.089 275.345 173.034 273.235C171.979 271.125 171.979 272.18 170.924 271.125C169.869 270.07 168.814 269.015 167.758 267.96C166.703 267.96 165.648 264.795 163.538 262.686C161.428 261.631 158.263 260.576 158.263 260.576C158.263 260.576 158.263 258.466 157.208 256.356C156.153 255.301 152.987 255.301 152.987 255.301C152.987 255.301 147.712 242.641 145.602 239.476C143.492 236.311 144.547 234.202 145.602 233.147C147.712 233.147 147.712 232.092 147.712 232.092C147.712 232.092 145.602 220.487 144.547 217.322C143.492 214.157 144.547 205.718 144.547 203.608C144.547 201.498 144.547 194.113 144.547 194.113L180.419 188.838L144.547 187.783C144.547 187.783 144.547 186.728 143.492 185.673C142.436 184.618 141.381 183.563 141.381 183.563L170.924 168.794L137.161 176.179C137.161 176.179 136.106 175.124 135.051 174.069C133.996 173.014 131.886 171.959 131.886 171.959L147.712 146.64L124.5 168.794C124.5 168.794 123.445 167.739 120.28 167.739C117.114 166.684 112.894 166.684 112.894 166.684L103.398 137.145L105.508 167.739C105.508 167.739 102.343 167.739 99.178 168.794C97.0678 169.849 94.9576 170.904 94.9576 170.904L64.3602 154.024L88.6271 177.234C88.6271 177.234 87.572 177.234 86.5169 179.344C85.4619 181.453 84.4068 181.453 84.4068 181.453L56.9746 183.563V180.398C56.9746 180.398 55.9195 170.904 54.8644 164.574C52.7542 158.244 52.7542 152.969 49.589 146.64C46.4237 140.31 43.2585 126.595 42.2034 122.376C41.1483 117.101 42.2034 105.496 42.2034 99.1664C42.2034 93.8916 39.0381 88.6168 36.928 85.4519C34.8178 79.1221 33.7627 74.9023 33.7627 74.9023V69.6275C33.7627 69.6275 33.7627 67.5176 34.8178 66.4626C36.928 66.4626 36.928 64.3527 35.8729 63.2977C34.8178 62.2428 35.8729 61.1878 35.8729 61.1878C35.8729 61.1878 43.2585 60.1328 45.3686 58.0229C47.4788 55.913 47.4788 54.858 47.4788 54.858C47.4788 54.858 47.4788 54.858 48.5339 52.7481C49.589 50.6382 46.4237 47.4733 46.4237 46.4183C45.3686 44.3084 46.4237 43.2534 47.4788 42.1985C48.5339 41.1435 48.5339 39.0336 48.5339 39.0336H46.4237V36.9237C46.4237 36.9237 46.4237 36.9237 44.3136 37.9786C42.2034 39.0336 41.1483 37.9786 41.1483 37.9786L40.0932 34.8137C40.0932 34.8137 37.9831 36.9237 35.8729 36.9237C33.7627 36.9237 32.7076 35.8687 32.7076 35.8687V29.5389C32.7076 29.5389 33.7627 28.484 35.8729 26.374C37.9831 24.2641 35.8729 18.9893 37.983 18.9893C39.0381 17.9344 40.0932 13.7145 40.0932 10.5496C40.0932 7.38473 42.2034 5.27481 42.2034 5.27481C42.2034 5.27481 41.1483 5.27481 40.0932 5.27481C37.9831 5.27481 36.928 7.38473 35.8729 9.49466C35.8729 12.6595 34.8178 12.6595 33.7627 10.5496C32.7076 8.4397 33.7627 6.32977 34.8178 4.21985C34.8178 2.10992 34.8178 0 34.8178 0C34.8178 0 30.5975 3.16489 27.4322 5.27481C23.2119 7.38473 21.1017 10.5496 21.1017 10.5496C21.1017 10.5496 21.1017 9.49466 20.0466 9.49466C20.0466 8.4397 17.9364 7.38473 17.9364 7.38473C17.9364 7.38473 17.9364 7.38473 17.9364 8.4397C17.9364 9.49466 16.8814 12.6595 13.7161 17.9344C10.5508 24.2641 15.8263 30.5939 15.8263 30.5939L16.8814 36.9237H15.8263L12.661 35.8687C12.661 35.8687 10.5508 39.0336 8.44068 39.0336C7.38559 39.0336 5.27542 37.9786 5.27542 37.9786V39.0336H2.11017V41.1435L0 42.1985C0 42.1985 1.05508 42.1985 3.16525 44.3084C5.27542 46.4183 2.11017 48.5282 1.05508 51.6931C0 53.8031 1.05508 53.8031 1.05508 55.913C1.05508 56.9679 4.22034 61.1878 8.44068 61.1878C8.44068 63.2977 8.44068 65.4076 10.5508 67.5176C11.6059 69.6275 14.7712 71.7374 14.7712 71.7374C14.7712 71.7374 14.7712 72.7924 12.661 74.9023C10.5508 77.0122 11.6059 78.0672 11.6059 80.1771C11.6059 82.287 11.6059 81.2321 10.5508 83.342C10.5508 84.3969 11.6059 84.397 13.7161 86.5069C15.8263 87.5618 14.7712 88.6168 13.7161 89.6718C12.661 90.7267 12.661 91.7817 14.7712 96.0015C16.8814 100.221 17.9364 104.441 17.9364 104.441C17.9364 104.441 18.9915 106.551 17.9364 107.606C16.8814 109.716 20.0466 107.606 17.9364 111.826C15.8263 116.046 17.9364 116.046 18.9915 117.101C20.0466 118.156 21.1017 121.321 21.1017 125.54C21.1017 129.76 24.2669 130.815 24.2669 130.815C24.2669 130.815 25.322 147.695 25.322 160.354C26.3771 174.069 30.5975 181.453 32.7076 185.673C34.8178 189.893 35.8729 202.553 35.8729 202.553C35.8729 202.553 29.5424 218.377 27.4322 222.597C25.322 226.817 23.2119 228.927 24.2669 243.696C25.322 258.466 28.4873 258.466 30.5975 258.466C32.7076 258.466 33.7627 258.466 34.8178 259.521C35.8729 260.576 39.0381 259.521 39.0381 259.521C39.0381 259.521 37.983 259.521 36.928 262.686C34.8178 264.795 34.8178 267.96 34.8178 272.18C34.8178 275.345 41.1483 274.29 41.1483 274.29C41.1483 274.29 42.2034 275.345 44.3136 277.455C46.4237 279.565 45.3686 283.785 44.3136 289.06C43.2585 294.334 46.4237 295.389 47.4788 297.499C48.5339 298.554 45.3686 303.829 44.3136 309.104C43.2585 313.324 50.6441 316.489 50.6441 316.489C50.6441 316.489 50.6441 316.489 50.6441 317.544C50.6441 318.598 52.7542 321.763 53.8093 323.873C54.8644 325.983 54.8644 329.148 54.8644 329.148C54.8644 329.148 50.6441 338.643 48.5339 342.863C45.3686 347.082 43.2585 355.522 42.2034 368.182C40.0932 380.841 42.2034 386.116 44.3136 392.446C47.4788 397.721 53.8093 397.721 53.8093 397.721C53.8093 397.721 50.6441 411.435 48.5339 415.655C46.4237 420.93 45.3686 429.369 45.3686 435.699C45.3686 442.029 49.589 455.743 51.6992 459.963C53.8093 464.183 52.7542 478.953 54.8644 483.173C55.9195 487.392 55.9195 495.832 55.9195 495.832C55.9195 495.832 56.9746 502.162 54.8644 506.382C52.7542 511.657 53.8093 523.261 53.8093 523.261C53.8093 528.536 60.1398 528.536 56.9746 530.646C54.8644 534.866 54.8644 535.921 54.8644 539.086C54.8644 542.25 53.8093 557.02 54.8644 570.734C55.9195 584.449 61.1949 594.998 61.1949 597.108C61.1949 599.218 61.1949 600.273 59.0847 603.438C56.9746 605.548 55.9195 608.713 58.0297 609.768C59.0847 610.823 59.0847 613.988 59.0847 617.153C59.0847 621.373 61.1949 626.647 61.1949 626.647C61.1949 626.647 61.1949 626.647 60.1398 629.812C59.0847 632.977 60.1398 638.252 60.1398 638.252C60.1398 638.252 60.1398 638.252 59.0847 639.307C58.0297 640.362 56.9746 645.637 56.9746 645.637C56.9746 645.637 48.5339 647.747 43.2585 649.857C37.983 651.966 34.8178 657.241 34.8178 657.241L18.9915 659.351V660.406L13.7161 663.571V681.505L4.22034 685.725V691H218.403L217.347 675.176L201.521 661.461L200.466 657.241C200.466 657.241 198.356 654.076 197.301 651.966C197.301 649.857 194.136 648.802 193.08 645.637C190.97 642.472 188.86 629.812 188.86 623.482C188.86 617.153 187.805 605.548 187.805 605.548C187.805 605.548 187.805 603.438 189.915 600.273C190.97 597.108 188.86 590.779 193.08 587.614C197.301 584.449 195.191 579.174 195.191 570.734C195.191 563.35 193.08 547.525 193.08 547.525L196.246 545.415L195.191 539.086H196.246C196.246 539.086 196.246 539.086 198.356 538.031C200.466 536.976 200.466 534.866 200.466 531.701C199.411 528.536 199.411 520.096 199.411 520.096C199.411 520.096 199.411 520.096 200.466 519.041C201.521 517.986 203.631 515.876 203.631 515.876C203.631 515.876 203.631 505.327 202.576 497.942C201.521 490.557 200.466 477.898 200.466 477.898C200.466 477.898 198.356 466.293 197.301 458.908C196.246 451.524 194.136 433.589 194.136 433.589C194.136 433.589 200.466 433.589 203.631 432.534C206.797 430.424 208.907 426.205 208.907 426.205C208.907 426.205 208.907 426.205 211.017 426.205C213.127 426.205 214.182 425.15 218.403 417.765C222.623 410.38 225.788 396.666 224.733 393.501C224.733 389.281 224.733 379.786 224.733 379.786C224.733 379.786 226.843 380.841 232.119 376.621C236.339 373.456 237.394 371.347 238.449 366.072C239.504 360.797 242.669 354.467 244.78 351.302C245.835 349.192 245.835 346.027 243.725 343.918C241.614 341.808 240.559 340.753 240.559 340.753L249 327.038L243.725 324.928ZM65.4153 190.948C63.3051 187.783 62.25 189.893 61.1949 189.893C60.1398 188.838 60.1398 185.673 60.1398 185.673H84.4068V190.948L67.5254 194.113C67.5254 194.113 67.5254 194.113 65.4153 190.948ZM82.2966 223.652C82.2966 223.652 80.1864 222.597 79.1314 220.487C78.0763 219.432 78.0763 218.377 75.9661 217.322C73.8559 217.322 73.8559 214.157 73.8559 209.937C73.8559 206.773 73.8559 204.663 72.8008 203.608C71.7458 202.553 69.6356 199.388 69.6356 199.388V198.333H86.5169C86.5169 198.333 86.5169 199.388 87.572 200.443C88.6271 201.498 87.572 203.608 86.5169 206.773C85.4619 209.937 84.4068 214.157 85.4619 214.157C86.517 214.157 88.6271 215.212 88.6271 215.212L82.2966 223.652Z" fill="#858585"/>
</svg>
