<svg width="105" height="59" viewBox="0 0 105 59" fill="none" xmlns="http://www.w3.org/2000/svg">
<g id="Logo">
<g id="Group">
<path id="Vector" d="M0 8.13242V3.46094H25.3595V8.13242H0ZM10.1438 34.5596V4.3285H15.2824V34.5596H10.1438Z" fill="black"/>
<path id="Vector_2" d="M29.8975 35.0271C27.9622 35.0271 26.2271 34.5599 24.6922 33.5589C23.1573 32.5579 21.8893 31.2232 21.0217 29.5548C20.0874 27.8864 19.687 26.0178 19.687 23.949C19.687 21.8135 20.1542 19.9449 21.0217 18.2765C21.956 16.6081 23.1573 15.2734 24.6922 14.2724C26.2271 13.2713 27.9622 12.8042 29.8975 12.8042C31.4992 12.8042 32.9674 13.1379 34.2353 13.872C35.5033 14.5393 36.5043 15.5404 37.2384 16.7416C37.9725 17.9428 38.3729 19.3443 38.3729 20.8792V27.0188C38.3729 28.5538 38.0393 29.9552 37.3052 31.1564C36.5711 32.3577 35.57 33.3587 34.3021 34.0261C32.9674 34.6267 31.4992 35.0271 29.8975 35.0271ZM30.6984 30.3556C32.5002 30.3556 33.9684 29.755 35.1029 28.5538C36.2374 27.3525 36.7713 25.8176 36.7713 23.8823C36.7713 22.6143 36.5043 21.4798 36.0372 20.4788C35.57 19.4777 34.836 18.7437 33.9017 18.2098C32.9674 17.6759 31.9663 17.4089 30.6984 17.4089C29.4971 17.4089 28.4961 17.6759 27.5618 18.2098C26.6275 18.7437 25.9601 19.5445 25.4263 20.4788C24.8924 21.4131 24.6254 22.6143 24.6254 23.8823C24.6254 25.1503 24.8924 26.2848 25.4263 27.2858C25.9601 28.2868 26.6275 29.0209 27.5618 29.5548C28.4961 30.0887 29.4971 30.3556 30.6984 30.3556ZM36.4376 34.5599V28.8207L37.3052 23.6153L36.4376 18.4767V13.2046H41.3093V34.5599H36.4376Z" fill="black"/>
</g>
<g id="Group_2">
<path id="Vector_3" d="M10.2106 48.8408C9.60999 48.6406 9.14284 48.4404 8.74243 48.1067L9.27631 46.9055C9.60999 47.1724 10.0104 47.3726 10.5443 47.5728C11.0782 47.773 11.5453 47.8398 12.0792 47.8398C12.6798 47.8398 13.147 47.773 13.4806 47.5728C13.8143 47.3726 13.9478 47.1057 13.9478 46.772C13.9478 46.5051 13.8811 46.3048 13.6809 46.1714C13.4806 46.0379 13.2804 45.9044 13.0135 45.8377C12.7466 45.771 12.4129 45.6375 11.9457 45.504C11.2784 45.3705 10.8112 45.1703 10.4108 45.0369C10.0104 44.9034 9.67673 44.6365 9.40979 44.3028C9.14284 43.9691 9.00937 43.5687 9.00937 42.9681C9.00937 42.5009 9.14284 42.1005 9.40979 41.7001C9.67673 41.2997 10.0104 41.0327 10.5443 40.7658C11.0782 40.4989 11.6788 40.4321 12.4129 40.4321C12.9468 40.4321 13.4139 40.4989 13.9478 40.6323C14.4149 40.7658 14.8821 40.966 15.2158 41.1662L14.7486 42.3675C14.3482 42.1673 14.0145 41.967 13.6141 41.9003C13.2137 41.7668 12.8133 41.7001 12.4796 41.7001C11.879 41.7001 11.4118 41.8336 11.0782 42.0338C10.7445 42.234 10.611 42.5009 10.611 42.8346C10.611 43.1015 10.6778 43.3018 10.878 43.4352C11.0782 43.5687 11.2784 43.7022 11.5453 43.7689C11.8123 43.8356 12.1459 43.9691 12.6131 44.1026C13.2137 44.236 13.7476 44.3695 14.148 44.5697C14.5484 44.7032 14.8821 44.9701 15.149 45.3038C15.416 45.6375 15.5494 46.0379 15.5494 46.5718C15.5494 47.0389 15.416 47.4393 15.149 47.8398C14.8821 48.2402 14.4817 48.5071 14.0145 48.7073C13.4806 48.9075 12.88 49.041 12.1459 49.041C11.4118 49.1077 10.8112 48.9743 10.2106 48.8408Z" fill="black"/>
<path id="Vector_4" d="M18.8197 41.9001H16.0168V40.5654H23.1575V41.9001H20.3546V48.9741H18.8197V41.9001Z" fill="black"/>
<path id="Vector_5" d="M29.7644 48.9741L28.0292 46.5049C27.9625 46.5049 27.829 46.5049 27.6956 46.5049H25.827V48.9741H24.2921V40.5654H27.7623C28.4964 40.5654 29.097 40.6989 29.6976 40.8991C30.2315 41.166 30.6319 41.4997 30.9656 41.9001C31.2325 42.3673 31.366 42.9012 31.366 43.5018C31.366 44.1024 31.2325 44.703 30.8989 45.1034C30.5652 45.5039 30.1648 45.9043 29.5642 46.1045L31.4995 48.8406H29.7644V48.9741ZM29.2305 42.3006C28.8968 42.0336 28.3629 41.9001 27.6956 41.9001H25.8937V45.2369H27.6956C28.3629 45.2369 28.8968 45.1034 29.2305 44.7698C29.5642 44.4361 29.7644 44.0357 29.7644 43.5018C29.7644 43.0346 29.5642 42.5675 29.2305 42.3006Z" fill="black"/>
<path id="Vector_6" d="M38.8404 47.0388H34.6361L33.8352 48.9741H32.2336L36.0375 40.5654H37.5724L41.3763 48.9741H39.7747L38.8404 47.0388ZM38.3065 45.7708L36.7049 42.1003L35.1032 45.7708H38.3065Z" fill="black"/>
<path id="Vector_7" d="M43.1781 41.9001H40.3752V40.5654H47.5159V41.9001H44.713V48.9741H43.1781V41.9001Z" fill="black"/>
<path id="Vector_8" d="M54.9236 47.6394V48.9741H48.6505V40.5654H54.7234V41.9001H50.1186V44.0357H54.1895V45.3036H50.1186V47.6394H54.9236Z" fill="black"/>
<path id="Vector_9" d="M62.0643 44.6366H63.5325V47.9734C63.1321 48.3071 62.5982 48.574 61.9976 48.7742C61.397 48.9744 60.7963 49.0412 60.1957 49.0412C59.3282 49.0412 58.5941 48.8409 57.86 48.5073C57.1926 48.1069 56.6587 47.6397 56.2583 46.9724C55.8579 46.305 55.6577 45.5709 55.6577 44.7701C55.6577 43.9693 55.8579 43.2352 56.2583 42.5678C56.6587 41.9005 57.1926 41.3666 57.86 41.0329C58.5273 40.6325 59.3282 40.499 60.1957 40.499C60.9298 40.499 61.5304 40.6325 62.131 40.8327C62.7317 41.0329 63.1988 41.4333 63.5992 41.8337L62.5982 42.768C61.9308 42.1007 61.1968 41.8337 60.2625 41.8337C59.6618 41.8337 59.128 41.9672 58.6608 42.2341C58.1937 42.5011 57.86 42.8348 57.593 43.3019C57.3261 43.7691 57.1926 44.2362 57.1926 44.8368C57.1926 45.3707 57.3261 45.9046 57.593 46.3717C57.86 46.8389 58.1937 47.1726 58.6608 47.4395C59.128 47.7064 59.6618 47.8399 60.1957 47.8399C60.8631 47.8399 61.397 47.7064 61.9308 47.4395V44.6366H62.0643Z" fill="black"/>
<path id="Vector_10" d="M69.0715 45.971V48.9074H67.5366V46.0377L64.1998 40.5654H65.8682L68.3374 44.6363L70.8066 40.5654H72.3416L69.0715 45.971Z" fill="black"/>
</g>
<g id="Group_3">
<path id="Vector_11" d="M14.4151 57.917V58.8512H9.87708V52.7783H14.2816V53.7126H10.9448V55.3143H13.8812V56.2486H10.9448V57.917H14.4151Z" fill="black"/>
<path id="Vector_12" d="M19.5536 58.8512L17.8852 56.5155L16.2836 58.8512H15.0156L17.2846 55.7814L15.1491 52.7783H16.4171L17.952 54.9139L19.4869 52.7783H20.6881L18.5526 55.7147L20.8216 58.8512H19.5536Z" fill="black"/>
<path id="Vector_13" d="M25.5599 53.0451C25.9604 53.2453 26.2273 53.4455 26.4275 53.7792C26.6277 54.1129 26.7612 54.5133 26.7612 54.9137C26.7612 55.3808 26.6277 55.7145 26.4275 56.0482C26.2273 56.3819 25.8936 56.6488 25.5599 56.7823C25.1595 56.9825 24.6924 57.0492 24.1585 57.0492H22.7571V58.7843H21.6226V52.7114H24.0918C24.7591 52.7782 25.1595 52.8449 25.5599 53.0451ZM25.293 55.848C25.5599 55.6478 25.6934 55.3141 25.6934 54.9804C25.6934 54.6468 25.5599 54.3131 25.293 54.1129C25.0261 53.9127 24.6924 53.7792 24.1585 53.7792H22.8238V56.1817H24.1585C24.6257 56.1149 25.0261 56.0482 25.293 55.848Z" fill="black"/>
<path id="Vector_14" d="M37.5057 58.8512L36.2377 57.0494C36.171 57.0494 36.1042 57.0494 35.9708 57.0494H34.7028V58.8512H33.5683V52.7783H36.0375C36.5714 52.7783 37.0385 52.8451 37.439 53.0453C37.8394 53.2455 38.1063 53.4457 38.3065 53.7794C38.5067 54.113 38.6402 54.5134 38.6402 54.9139C38.6402 55.381 38.5067 55.7814 38.3065 56.1151C38.1063 56.4488 37.7726 56.7157 37.3722 56.8492L38.7737 58.8512H37.5057ZM37.1053 54.0463C36.8383 53.8461 36.5047 53.7126 35.9708 53.7126H34.6361V56.1151H35.9708C36.4379 56.1151 36.8383 55.9816 37.1053 55.7814C37.3722 55.5812 37.5057 55.2475 37.5057 54.9139C37.5057 54.5802 37.3722 54.2465 37.1053 54.0463Z" fill="black"/>
<path id="Vector_15" d="M41.1092 53.7126H39.1072V52.7783H44.2458V53.7126H42.2437V58.8512H41.1092V53.7126Z" fill="black"/>
</g>
<path id="Vector_16" d="M60.5289 13.8049C52.0535 20.7453 47.2486 28.8871 44.5792 34.5596H48.5833C51.7199 28.0195 56.6583 20.1447 64.8 13.6046C82.8186 -0.876942 104.241 0.457768 104.241 0.257561C104.174 -0.00938049 80.1491 -2.27839 60.5289 13.8049Z" fill="#35B984"/>
<g id="Group_4">
<path id="Vector_17" d="M54.5895 26.6848L60.1952 34.5596H66.068L57.5926 22.6807C56.5248 23.9486 55.5238 25.2833 54.5895 26.6848Z" fill="black"/>
<path id="Vector_18" d="M54.1891 17.9425L50.8524 13.271H44.9129L50.9858 21.6797C52.0536 20.345 53.1214 19.1437 54.1891 17.9425Z" fill="black"/>
</g>
<path id="Vector_19" d="M32.3666 57.7168H27.8286V58.8513H32.3666V57.7168Z" fill="#35B984"/>
<path id="Vector_20" d="M32.3666 52.7783H27.8286V53.9128H32.3666V52.7783Z" fill="#35B984"/>
<path id="Vector_21" d="M32.3666 55.2476H27.8286V56.3821H32.3666V55.2476Z" fill="#35B984"/>
<path id="Vector_22" d="M69.2045 57.917H44.5792V58.8513H69.2045V57.917Z" fill="black"/>
<path id="Vector_23" d="M8.20846 58.7846C8.61388 58.7846 8.94254 58.4559 8.94254 58.0505C8.94254 57.6451 8.61388 57.3164 8.20846 57.3164C7.80303 57.3164 7.47437 57.6451 7.47437 58.0505C7.47437 58.4559 7.80303 58.7846 8.20846 58.7846Z" fill="black"/>
</g>
</svg>
