<svg width="151" height="15" fill="none" xmlns="http://www.w3.org/2000/svg"><path d="M138.091 2.174c-3.256-.28-6.568-.561-9.879-.842-1.067-.093-2.189-.085-3.255-.18L117.887.9c-1.291-.092-2.637-.083-3.928-.175l-1.122.008-2.58.018-11.612.083c-.897.006-1.85.013-2.748.12-2.299.118-4.542.134-6.842.251-2.58.12-5.16.138-7.739.258-4.15.232-8.355.464-12.505.696l-7.234.355-12.446 1c-2.298.22-4.541.336-6.84.555-4.315.537-8.632.973-12.948 1.409-2.298.219-4.597.438-6.895.758-4.258.638-8.572 1.378-12.83 2.117-.897.108-1.85.317-2.802.425-1.793.317-3.64.836-5.489 1.255-.112 0-.224.102-.336.103-.224.002-.391.206-.557.51-.277.51-.385 1.118-.38 1.726.004.607.12 1.214.403 1.618.228.403.622.704.903.702 2.24-.42 4.425-.943 6.666-1.364l6.22-.956c2.241-.32 4.482-.74 6.78-1.06.897-.108 1.793-.317 2.746-.425 3.531-.33 7.006-.76 10.538-1.088l6.559-.654 2.69-.323c3.476-.329 6.952-.556 10.428-.885 2.13-.116 4.205-.333 6.335-.45.73-.005 1.402-.11 2.131-.116 3.757-.23 7.515-.357 11.272-.586l6.28-.349c.73-.005 1.514-.112 2.243-.117 3.87-.129 7.74-.156 11.666-.285 2.412-.017 4.823-.136 7.235-.153 4.095-.029 8.246-.058 12.342.014.785-.005 1.627.09 2.412.084 2.301.085 4.545.17 6.847.357 1.683.09 3.423.178 5.106.268 1.235.092 2.414.185 3.649.278 3.536.279 7.129.659 10.665 1.039l2.695.285c.954.094 1.965.188 2.92.384.168-.001.281.1.45.2.393.098.73.096 1.064-.312.334-.306.554-.916.662-1.524.215-1.319-.244-2.734-1.032-3.133-.675-.3-1.349-.396-1.968-.594-.449-.098-.898-.196-1.347-.193-.899-.197-1.797-.19-2.64-.387-1.571-.09-3.255-.28-4.883-.472z" fill="#35B984"/></svg>